<?xml version="1.0" encoding="UTF-8" standalone="no"?>
<!-- Created with Inkscape (http://www.inkscape.org/) -->

<svg
   xmlns:dc="http://purl.org/dc/elements/1.1/"
   xmlns:cc="http://creativecommons.org/ns#"
   xmlns:rdf="http://www.w3.org/1999/02/22-rdf-syntax-ns#"
   xmlns:svg="http://www.w3.org/2000/svg"
   xmlns="http://www.w3.org/2000/svg"
   xmlns:xlink="http://www.w3.org/1999/xlink"
   xmlns:sodipodi="http://sodipodi.sourceforge.net/DTD/sodipodi-0.dtd"
   xmlns:inkscape="http://www.inkscape.org/namespaces/inkscape"
   version="1.0"
   width="16"
   height="16"
   id="svg2408"
   sodipodi:docname="keepassxc.svg"
   inkscape:version="0.92.2 2405546, 2018-03-11"
   inkscape:export-filename="/home/drew/Documents/Projects/djh101/Faiancy/Faiancy/apps/scalable/keepassxc16.png"
   inkscape:export-xdpi="16"
   inkscape:export-ydpi="16">
  <sodipodi:namedview
     pagecolor="#ffffff"
     bordercolor="#666666"
     borderopacity="1"
     objecttolerance="10"
     gridtolerance="10"
     guidetolerance="10"
     inkscape:pageopacity="0"
     inkscape:pageshadow="2"
     inkscape:window-width="1920"
     inkscape:window-height="1024"
     id="namedview126"
     showgrid="false"
     inkscape:zoom="39.333334"
     inkscape:cx="4.8901333"
     inkscape:cy="6.8876305"
     inkscape:window-x="0"
     inkscape:window-y="0"
     inkscape:window-maximized="1"
     inkscape:current-layer="layer1" />
  <defs
     id="defs2410">
    <linearGradient
       id="linearGradient4062">
      <stop
         id="stop4064"
         style="stop-color:#206520;stop-opacity:1"
         offset="0" />
      <stop
         id="stop4066"
         style="stop-color:#5a9d35;stop-opacity:1"
         offset="1" />
    </linearGradient>
    <linearGradient
       id="linearGradient3813">
      <stop
         id="stop3815"
         style="stop-color:#666666;stop-opacity:1"
         offset="0" />
      <stop
         id="stop3817"
         style="stop-color:#666666;stop-opacity:0"
         offset="1" />
    </linearGradient>
    <linearGradient
       id="linearGradient3790">
      <stop
         id="stop3792"
         style="stop-color:#969696;stop-opacity:1"
         offset="0" />
      <stop
         id="stop3794"
         style="stop-color:#ffffff;stop-opacity:0.79069769"
         offset="1" />
    </linearGradient>
    <linearGradient
       id="linearGradient3749">
      <stop
         id="stop3751"
         style="stop-color:#000000;stop-opacity:0.5271318"
         offset="0" />
      <stop
         id="stop3757"
         style="stop-color:#7f7f7f;stop-opacity:0"
         offset="0.5" />
      <stop
         id="stop3753"
         style="stop-color:#ffffff;stop-opacity:1"
         offset="1" />
    </linearGradient>
    <linearGradient
       id="linearGradient3714">
      <stop
         id="stop3716"
         style="stop-color:#d7d7d7;stop-opacity:1"
         offset="0" />
      <stop
         id="stop3718"
         style="stop-color:#c8c8c8;stop-opacity:1"
         offset="1" />
    </linearGradient>
    <linearGradient
       x1="45.447727"
       y1="92.539597"
       x2="45.447727"
       y2="7.0165396"
       id="ButtonShadow"
       gradientUnits="userSpaceOnUse"
       gradientTransform="scale(1.0058652,0.994169)">
      <stop
         id="stop3750"
         style="stop-color:#000000;stop-opacity:1"
         offset="0" />
      <stop
         id="stop3752"
         style="stop-color:#000000;stop-opacity:0.58823532"
         offset="1" />
    </linearGradient>
    <linearGradient
       id="linearGradient3737">
      <stop
         id="stop3739"
         style="stop-color:#ffffff;stop-opacity:1"
         offset="0" />
      <stop
         id="stop3741"
         style="stop-color:#ffffff;stop-opacity:0"
         offset="1" />
    </linearGradient>
    <linearGradient
       id="linearGradient3700">
      <stop
         id="stop3702"
         style="stop-color:#236f23;stop-opacity:1"
         offset="0" />
      <stop
         id="stop3704"
         style="stop-color:#61a939;stop-opacity:1"
         offset="1" />
    </linearGradient>
    <filter
       id="filter3174"
       style="color-interpolation-filters:sRGB">
      <feGaussianBlur
         id="feGaussianBlur3176"
         stdDeviation="1.71" />
    </filter>
    <linearGradient
       x1="36.357143"
       y1="6"
       x2="36.357143"
       y2="63.893143"
       id="linearGradient3188"
       xlink:href="#linearGradient3737"
       gradientUnits="userSpaceOnUse" />
    <filter
       x="-0.192"
       y="-0.192"
       width="1.3839999"
       height="1.3839999"
       id="filter3794"
       style="color-interpolation-filters:sRGB">
      <feGaussianBlur
         id="feGaussianBlur3796"
         stdDeviation="5.28" />
    </filter>
    <linearGradient
       x1="48"
       y1="20.220806"
       x2="48"
       y2="138.66119"
       id="linearGradient3613"
       xlink:href="#linearGradient3737"
       gradientUnits="userSpaceOnUse" />
    <radialGradient
       cx="48"
       cy="90.171875"
       r="42"
       fx="48"
       fy="90.171875"
       id="radialGradient3619"
       xlink:href="#linearGradient3737"
       gradientUnits="userSpaceOnUse"
       gradientTransform="matrix(1.1573129,0,0,0.99590774,-7.5510206,0.19713193)" />
    <clipPath
       id="clipPath3613">
      <rect
         width="84"
         height="84"
         rx="6"
         ry="6"
         x="6"
         y="6"
         id="rect3615"
         style="fill:#ffffff;fill-opacity:1;fill-rule:nonzero;stroke:none" />
    </clipPath>
    <linearGradient
       x1="48"
       y1="90"
       x2="48"
       y2="5.9877172"
       id="linearGradient3617"
       xlink:href="#linearGradient3700"
       gradientUnits="userSpaceOnUse" />
    <linearGradient
       x1="45.447727"
       y1="92.539597"
       x2="45.447727"
       y2="7.0165396"
       id="ButtonShadow-0"
       gradientUnits="userSpaceOnUse"
       gradientTransform="matrix(1.0058652,0,0,0.994169,100,0)">
      <stop
         id="stop3750-8"
         style="stop-color:#000000;stop-opacity:1"
         offset="0" />
      <stop
         id="stop3752-5"
         style="stop-color:#000000;stop-opacity:0.58823532"
         offset="1" />
    </linearGradient>
    <linearGradient
       x1="32.251034"
       y1="6.1317081"
       x2="32.251034"
       y2="90.238609"
       id="linearGradient3780"
       xlink:href="#ButtonShadow-0"
       gradientUnits="userSpaceOnUse"
       gradientTransform="matrix(1.0238095,0,0,1.0119048,-1.1428571,-98.071429)" />
    <linearGradient
       x1="32.251034"
       y1="6.1317081"
       x2="32.251034"
       y2="90.238609"
       id="linearGradient3772"
       xlink:href="#ButtonShadow-0"
       gradientUnits="userSpaceOnUse"
       gradientTransform="matrix(1.0238095,0,0,1.0119048,-1.1428571,-98.071429)" />
    <linearGradient
       x1="32.251034"
       y1="6.1317081"
       x2="32.251034"
       y2="90.238609"
       id="linearGradient3725"
       xlink:href="#ButtonShadow-0"
       gradientUnits="userSpaceOnUse"
       gradientTransform="matrix(1.0238095,0,0,1.0119048,-1.1428571,-98.071429)" />
    <linearGradient
       x1="32.251034"
       y1="6.1317081"
       x2="32.251034"
       y2="90.238609"
       id="linearGradient3721"
       xlink:href="#ButtonShadow-0"
       gradientUnits="userSpaceOnUse"
       gradientTransform="translate(0,-97)" />
    <linearGradient
       x1="32.251034"
       y1="6.1317081"
       x2="32.251034"
       y2="90.238609"
       id="linearGradient3026"
       xlink:href="#ButtonShadow-0"
       gradientUnits="userSpaceOnUse"
       gradientTransform="matrix(1.0238095,0,0,1.0119048,-1.1428571,-98.071429)" />
    <linearGradient
       x1="62.823048"
       y1="53.023079"
       x2="62.823048"
       y2="22.999353"
       id="linearGradient3742"
       xlink:href="#linearGradient3749"
       gradientUnits="userSpaceOnUse"
       gradientTransform="matrix(1,0,0,-1,4,66)" />
    <linearGradient
       x1="59"
       y1="32"
       x2="69.1875"
       y2="32"
       id="linearGradient3755"
       xlink:href="#linearGradient3749"
       gradientUnits="userSpaceOnUse"
       gradientTransform="rotate(75,68.700201,32.606451)" />
    <radialGradient
       cx="57"
       cy="37"
       r="15"
       fx="57"
       fy="37"
       id="radialGradient3827"
       xlink:href="#linearGradient3737"
       gradientUnits="userSpaceOnUse"
       gradientTransform="matrix(1.2,7.0502532e-8,-6.070424e-8,1.0332266,-7.399999,-5.2293852)" />
    <linearGradient
       x1="48"
       y1="72"
       x2="48"
       y2="-8"
       id="linearGradient3120"
       xlink:href="#linearGradient3700"
       gradientUnits="userSpaceOnUse"
       gradientTransform="translate(-96,-4)" />
    <linearGradient
       x1="48"
       y1="72"
       x2="48"
       y2="24"
       id="linearGradient3122"
       xlink:href="#linearGradient3714"
       gradientUnits="userSpaceOnUse"
       gradientTransform="rotate(-45,-4.8530374,162.90146)" />
    <radialGradient
       cx="57"
       cy="37"
       r="15"
       fx="57"
       fy="37"
       id="radialGradient3124"
       xlink:href="#linearGradient3737"
       gradientUnits="userSpaceOnUse"
       gradientTransform="matrix(0.84852819,-0.84852809,0.73060149,0.73060158,-125.54048,51.472829)" />
    <linearGradient
       x1="62.823048"
       y1="53.023079"
       x2="62.823048"
       y2="22.999353"
       id="linearGradient3126"
       xlink:href="#linearGradient3749"
       gradientUnits="userSpaceOnUse"
       gradientTransform="matrix(0.70710678,-0.70710678,-0.70710678,-0.70710678,-67.112677,93.778593)" />
    <linearGradient
       x1="59"
       y1="32"
       x2="69.1875"
       y2="32"
       id="linearGradient3128"
       xlink:href="#linearGradient3749"
       gradientUnits="userSpaceOnUse"
       gradientTransform="rotate(30,27.146227,-183.61066)" />
    <linearGradient
       x1="34"
       y1="58"
       x2="36"
       y2="60"
       id="linearGradient3130"
       xlink:href="#linearGradient3790"
       gradientUnits="userSpaceOnUse"
       gradientTransform="rotate(-45,-4.8530374,162.90146)" />
    <linearGradient
       x1="24"
       y1="75"
       x2="59.503521"
       y2="39.496479"
       id="linearGradient3132"
       xlink:href="#linearGradient3813"
       gradientUnits="userSpaceOnUse"
       gradientTransform="rotate(-45,-4.8530374,162.90146)" />
    <linearGradient
       x1="48"
       y1="72"
       x2="48"
       y2="24"
       id="linearGradient3149"
       xlink:href="#linearGradient3714"
       gradientUnits="userSpaceOnUse"
       gradientTransform="translate(4,-4)" />
    <linearGradient
       x1="48"
       y1="72"
       x2="48"
       y2="-8"
       id="linearGradient4053"
       xlink:href="#linearGradient3700"
       gradientUnits="userSpaceOnUse"
       gradientTransform="translate(4,-4)" />
    <linearGradient
       x1="48"
       y1="72"
       x2="48"
       y2="-8"
       id="linearGradient4059"
       xlink:href="#linearGradient4062"
       gradientUnits="userSpaceOnUse"
       gradientTransform="translate(2,-2)" />
    <linearGradient
       x1="24"
       y1="75"
       x2="59.503521"
       y2="39.496479"
       id="linearGradient3123"
       xlink:href="#linearGradient3813"
       gradientUnits="userSpaceOnUse"
       gradientTransform="rotate(-45,44.877077,44.895496)" />
    <linearGradient
       x1="34"
       y1="58"
       x2="36"
       y2="60"
       id="linearGradient3127"
       xlink:href="#linearGradient3790"
       gradientUnits="userSpaceOnUse"
       gradientTransform="rotate(-45,46.584184,45.602602)" />
    <linearGradient
       x1="48"
       y1="72"
       x2="48"
       y2="24"
       id="linearGradient3131"
       xlink:href="#linearGradient3714"
       gradientUnits="userSpaceOnUse"
       gradientTransform="rotate(-45,46.584184,45.602602)" />
    <linearGradient
       x1="48"
       y1="90"
       x2="48"
       y2="5.9877172"
       id="linearGradient3617-6"
       xlink:href="#linearGradient3700"
       gradientUnits="userSpaceOnUse" />
    <linearGradient
       x1="36.357143"
       y1="6"
       x2="36.357143"
       y2="63.893143"
       id="linearGradient3188-3"
       xlink:href="#linearGradient3737"
       gradientUnits="userSpaceOnUse" />
    <radialGradient
       cx="48"
       cy="90.171875"
       r="42"
       fx="48"
       fy="90.171875"
       id="radialGradient3619-2"
       xlink:href="#linearGradient3737"
       gradientUnits="userSpaceOnUse"
       gradientTransform="matrix(1.1573129,0,0,0.99590774,-64.35926,-1.528688)" />
    <linearGradient
       x1="48"
       y1="90"
       x2="48"
       y2="5.9877172"
       id="linearGradient3617-2"
       xlink:href="#linearGradient3700"
       gradientUnits="userSpaceOnUse"
       gradientTransform="matrix(0.83333335,0,0,0.83333335,11.398054,2.981172)" />
  </defs>
  <metadata
     id="metadata2413">
    <rdf:RDF>
      <cc:Work
         rdf:about="">
        <dc:format>image/svg+xml</dc:format>
        <dc:type
           rdf:resource="http://purl.org/dc/dcmitype/StillImage" />
        <dc:title />
      </cc:Work>
    </rdf:RDF>
  </metadata>
  <g
     id="layer2"
     style="display:none"
     transform="translate(0,-80)">
    <rect
       width="86"
       height="85"
       rx="6"
       ry="6"
       x="5"
       y="7"
       id="rect3745"
       style="opacity:0.9;fill:url(#ButtonShadow);fill-opacity:1;fill-rule:nonzero;stroke:none;filter:url(#filter3174)" />
  </g>
  <g
     id="layer1"
     style="display:inline"
     transform="matrix(0.1666675,0,0,-0.1666675,6.0807135,18.903938)">
    <rect
       width="95.999519"
       height="95.999519"
       rx="6.8571076"
       ry="6.8571076"
       x="-36.4841"
       y="17.42354"
       id="rect2419-19-3"
       style="display:inline;fill:#f9f9f9;fill-opacity:1;fill-rule:nonzero;stroke:none;stroke-width:1.14285135" />
    <rect
       width="72.990044"
       height="72.990044"
       rx="5.2135739"
       ry="5.2135739"
       x="-24.979351"
       y="28.928282"
       id="rect2419-19"
       style="display:inline;fill:#448d2f;fill-opacity:1;fill-rule:nonzero;stroke:none;stroke-width:0.86892903" />
    <path
       style="opacity:1;fill:#505050;fill-opacity:1;fill-rule:nonzero;stroke:none;stroke-width:1.14285052"
       d="m -29.627194,113.42296 c -2.630909,0 -4.876133,-1.48794 -6.026748,-3.65175 -0.0126,-0.0225 -0.0324,-0.0399 -0.0444,-0.0625 -0.0138,-0.026 -0.0222,-0.0544 -0.0354,-0.0803 -0.09972,-0.19885 -0.196439,-0.3977 -0.276779,-0.60714 -0.0348,-0.0823 -0.08652,-0.15504 -0.116099,-0.24107 -0.012,-0.0344 -0.0246,-0.0724 -0.036,-0.10713 -0.0408,-0.1246 -0.0516,-0.26209 -0.0804,-0.39286 -0.0516,-0.20079 -0.100259,-0.39955 -0.133919,-0.60713 -0.0588,-0.36277 -0.10716,-0.72727 -0.10716,-1.10715 v -2.2857 -77.713838 -2.2857 c 0,-0.382558 0.0474,-0.743655 0.10716,-1.107139 0.0336,-0.207599 0.0822,-0.406318 0.133919,-0.607137 0.0288,-0.130799 0.0396,-0.268258 0.0804,-0.392878 0.0114,-0.0348 0.024,-0.07266 0.0354,-0.107219 0.0294,-0.08604 0.08142,-0.15876 0.116099,-0.241019 0.0804,-0.209399 0.177059,-0.408298 0.276779,-0.607143 0.0138,-0.0258 0.0222,-0.054 0.036,-0.08034 0.012,-0.0222 0.0324,-0.0402 0.0444,-0.06252 1.150627,-2.163806 3.395845,-3.651756 6.026748,-3.651756 h 82.28523 c 2.63091,0 4.87613,1.48795 6.02675,3.651762 0.012,0.0222 0.033,0.0396 0.045,0.06252 0.0138,0.0258 0.0222,0.0546 0.0354,0.08034 0.0985,0.196499 0.1971,0.391378 0.27678,0.598197 0.0354,0.08472 0.0856,0.161339 0.11604,0.250019 0.012,0.0354 0.024,0.07176 0.0354,0.107219 0.048,0.147479 0.0661,0.308639 0.0982,0.464278 0.0384,0.156899 0.0706,0.312178 0.0982,0.473217 0.003,0.0216 0.0144,0.0414 0.018,0.06252 0.06,0.363478 0.10716,0.724575 0.10716,1.107115 v 2.285688 77.713834 2.2857 c 0,0.38254 -0.0474,0.74366 -0.10716,1.10714 -0.003,0.0214 -0.0144,0.041 -0.018,0.0625 -0.0276,0.16101 -0.0594,0.3163 -0.0982,0.47321 -0.0318,0.1556 -0.0504,0.31681 -0.0982,0.46428 -0.0114,0.0355 -0.024,0.072 -0.0354,0.10714 -0.0306,0.0886 -0.0802,0.16527 -0.11604,0.24999 -0.0796,0.20682 -0.17826,0.40175 -0.27678,0.59822 -0.0132,0.0261 -0.0222,0.0544 -0.0354,0.0803 -0.012,0.0226 -0.0324,0.04 -0.045,0.0625 -1.15062,2.16382 -3.39584,3.65177 -6.02675,3.65177 z m 3.821303,-5.82772 h 2.285707 69.70652 2.2857 c 3.17923,0 5.06775,-0.37833 5.06775,-3.55757 v -3.42646 l 0.0923,-71.552828 c 0.004,-3.179234 -1.33437,-6.083688 -4.5136,-6.083688 h -2.10093 -70.537732 -2.285695 c -3.179234,0 -4.790694,1.888539 -4.790694,5.067767 v 2.2857 l 0.0924,70.190689 v 2.2857 c 0,3.17924 1.519102,4.79069 4.69833,4.79069 z"
       id="rect3728-4"
       inkscape:connector-curvature="0"
       sodipodi:nodetypes="scccccccssccsccccccccsscccccccccsccscccccccccsssccsscssccssccss" />
  </g>
  <g
     id="layer5"
     style="display:inline"
     transform="matrix(0.1666675,0,0,0.1666675,-0.02353614,-2.2500513)" />
  <g
     id="layer4"
     style="fill:#f9f9f9;fill-opacity:1"
     transform="matrix(0.99871971,0,0,0.99871971,-93.053118,-91.575435)">
    <path
       style="fill:#f9f9f9;fill-opacity:1;stroke:none;stroke-width:0.16666751"
       d="m 99.809201,98.574654 v 5.848326 l 1.383159,1.38315 1.38347,-1.38347 -0.0794,-1.22494 0.65234,-0.65202 -0.65234,-0.65202 c 6.6e-4,-0.12524 0,0 0,0 l 0.97851,-0.97787 -0.97851,-0.978519 0.0794,-1.362963 z m 0.460949,0.77572 h 0.46127 v 4.611016 h -0.46094 z"
       id="path3666"
       inkscape:connector-curvature="0"
       sodipodi:nodetypes="ccccccccccccccccc" />
    <g
       transform="matrix(0.12656175,-0.12656447,0.12656175,0.12656447,89.032733,99.977449)"
       id="g3151"
       style="fill:#f9f9f9;fill-opacity:1">
      <path
         d="m 65.002519,12.997481 c -9.941126,0 -18,8.058875 -18,18 0,0.439589 0.0065,0.880544 0.0375,1.3125 0.02382,0.331209 0.07098,0.648879 0.1125,0.975 0.04783,0.375723 0.116892,0.756774 0.1875,1.125 0.02387,0.124589 0.04858,0.251338 0.075,0.375 0.113988,0.533415 0.252396,1.060248 0.4125,1.575 0.175308,0.563634 0.372288,1.111628 0.6,1.65 0.08429,0.199008 0.171367,0.404781 0.2625,0.6 0.154066,0.329951 0.314376,0.656308 0.4875,0.975 0.0052,0.0095 -0.0052,0.02802 0,0.0375 1.657603,3.038296 4.161704,5.542397 7.2,7.2 0.0095,0.0052 0.02801,-0.0052 0.0375,0 0.31881,0.173188 0.644714,0.333316 0.975,0.4875 0.198165,0.09253 0.397986,0.177056 0.6,0.2625 0.538372,0.227712 1.086366,0.424692 1.65,0.6 0.514752,0.160104 1.041585,0.298511 1.575,0.4125 0.05065,0.0108 0.09919,0.02711 0.15,0.0375 0.44183,0.09062 0.897163,0.167351 1.35,0.225 0.326121,0.04152 0.643791,0.08868 0.975,0.1125 0.435535,0.03154 0.868921,0.0375 1.3125,0.0375 9.941125,0 18,-8.058874 18,-18 0,-0.02532 1.04e-4,-0.0497 0,-0.075 -1.61e-4,-0.05041 5.74e-4,-0.09968 0,-0.15 -0.0122,-1.069245 -0.146678,-2.09628 -0.3375,-3.1125 -0.02053,-0.109536 -0.015,-0.228667 -0.0375,-0.3375 -0.118788,-0.572196 -0.278272,-1.136751 -0.45,-1.6875 -0.0035,-0.01128 0.0036,-0.0262 0,-0.0375 -0.172848,-0.55043 -0.377063,-1.086387 -0.6,-1.6125 -0.0044,-0.01044 0.0044,-0.02706 0,-0.0375 -0.224086,-0.525942 -0.478646,-1.038771 -0.75,-1.5375 -0.0052,-0.0095 0.0052,-0.02802 0,-0.0375 -0.346733,-0.63442 -0.781913,-1.214978 -1.2,-1.8 -0.248501,-0.347611 -0.477988,-0.721425 -0.75,-1.05 -0.361011,-0.435328 -0.762622,-0.838218 -1.1625,-1.2375 -0.814341,-0.81434 -1.704894,-1.565553 -2.6625,-2.2125 -0.706008,-0.474944 -1.477745,-0.90224 -2.25,-1.275 -0.276665,-0.133311 -0.540692,-0.293145 -0.825,-0.4125 -0.522779,-0.220196 -1.065928,-0.391585 -1.6125,-0.5625 -0.563634,-0.175308 -1.139122,-0.330111 -1.725,-0.45 -1.171757,-0.239775 -2.39486,-0.375 -3.6375,-0.375 z m 3.6,9.6 c 2.644987,0 4.79156,2.155026 4.8,4.8 0,2.650967 -2.149034,4.8 -4.8,4.8 -2.650967,0 -4.8,-2.149033 -4.8,-4.8 0,-2.650966 2.149033,-4.8 4.8,-4.8 z"
         inkscape:connector-curvature="0"
         id="path3141"
         style="fill:#f9f9f9;fill-opacity:1;stroke:none;stroke-width:1.20000005" />
    </g>
  </g>
</svg>
