<?xml version="1.0" encoding="UTF-8" standalone="no"?>
<!-- Created with Inkscape (http://www.inkscape.org/) -->

<svg
   xmlns:dc="http://purl.org/dc/elements/1.1/"
   xmlns:cc="http://creativecommons.org/ns#"
   xmlns:rdf="http://www.w3.org/1999/02/22-rdf-syntax-ns#"
   xmlns:svg="http://www.w3.org/2000/svg"
   xmlns="http://www.w3.org/2000/svg"
   xmlns:xlink="http://www.w3.org/1999/xlink"
   xmlns:sodipodi="http://sodipodi.sourceforge.net/DTD/sodipodi-0.dtd"
   xmlns:inkscape="http://www.inkscape.org/namespaces/inkscape"
   version="1.0"
   width="24"
   height="24"
   id="svg2408"
   sodipodi:docname="googleplaymovies.svg"
   inkscape:version="0.92.2 2405546, 2018-03-11"
   inkscape:export-filename="/home/drew/builds/faenzx-icon-theme/src/Faenzx/apps/16/mathematica.png"
   inkscape:export-xdpi="16"
   inkscape:export-ydpi="16">
  <sodipodi:namedview
     pagecolor="#ffffff"
     bordercolor="#666666"
     borderopacity="1"
     objecttolerance="10"
     gridtolerance="10"
     guidetolerance="10"
     inkscape:pageopacity="0"
     inkscape:pageshadow="2"
     inkscape:window-width="1624"
     inkscape:window-height="991"
     id="namedview59"
     showgrid="false"
     inkscape:zoom="5.6568543"
     inkscape:cx="-29.860776"
     inkscape:cy="-12.638593"
     inkscape:window-x="1920"
     inkscape:window-y="33"
     inkscape:window-maximized="1"
     inkscape:current-layer="layer1-2" />
  <defs
     id="defs2410">
    <linearGradient
       id="linearGradient3825">
      <stop
         id="stop3827"
         style="stop-color:#501616;stop-opacity:1"
         offset="0" />
      <stop
         id="stop3829"
         style="stop-color:#501616;stop-opacity:0"
         offset="1" />
    </linearGradient>
    <linearGradient
       id="linearGradient3694">
      <stop
         id="stop3696"
         style="stop-color:#e6e6e6;stop-opacity:1"
         offset="0" />
      <stop
         id="stop3698"
         style="stop-color:#f5f5f5;stop-opacity:1"
         offset="1" />
    </linearGradient>
    <linearGradient
       id="linearGradient3688">
      <stop
         id="stop3690"
         style="stop-color:#b31307;stop-opacity:1"
         offset="0" />
      <stop
         id="stop3692"
         style="stop-color:#e41c0d;stop-opacity:1"
         offset="1" />
    </linearGradient>
    <linearGradient
       x1="45.447727"
       y1="92.539597"
       x2="45.447727"
       y2="7.0165396"
       id="ButtonShadow"
       gradientUnits="userSpaceOnUse"
       gradientTransform="scale(1.0058652,0.994169)">
      <stop
         id="stop3750"
         style="stop-color:#000000;stop-opacity:1"
         offset="0" />
      <stop
         id="stop3752"
         style="stop-color:#000000;stop-opacity:0.58823532"
         offset="1" />
    </linearGradient>
    <linearGradient
       id="linearGradient3737">
      <stop
         id="stop3739"
         style="stop-color:#ffffff;stop-opacity:1"
         offset="0" />
      <stop
         id="stop3741"
         style="stop-color:#ffffff;stop-opacity:0"
         offset="1" />
    </linearGradient>
    <filter
       id="filter3174"
       style="color-interpolation-filters:sRGB">
      <feGaussianBlur
         id="feGaussianBlur3176"
         stdDeviation="1.71" />
    </filter>
    <linearGradient
       x1="36.357143"
       y1="6"
       x2="36.357143"
       y2="63.893143"
       id="linearGradient3188"
       xlink:href="#linearGradient3737"
       gradientUnits="userSpaceOnUse" />
    <filter
       x="-0.192"
       y="-0.192"
       width="1.3839999"
       height="1.3839999"
       id="filter3794"
       style="color-interpolation-filters:sRGB">
      <feGaussianBlur
         id="feGaussianBlur3796"
         stdDeviation="5.28" />
    </filter>
    <linearGradient
       x1="48"
       y1="20.220806"
       x2="48"
       y2="138.66119"
       id="linearGradient3613"
       xlink:href="#linearGradient3737"
       gradientUnits="userSpaceOnUse" />
    <radialGradient
       cx="48"
       cy="90.171875"
       r="42"
       fx="48"
       fy="90.171875"
       id="radialGradient3619"
       xlink:href="#linearGradient3737"
       gradientUnits="userSpaceOnUse"
       gradientTransform="matrix(1.1573129,0,0,0.99590774,-7.5510206,0.19713193)" />
    <clipPath
       id="clipPath3613">
      <rect
         width="84"
         height="84"
         rx="6"
         ry="6"
         x="6"
         y="6"
         id="rect3615"
         style="fill:#ffffff;fill-opacity:1;fill-rule:nonzero;stroke:none" />
    </clipPath>
    <linearGradient
       x1="48"
       y1="90"
       x2="48"
       y2="5.9877172"
       id="linearGradient3617"
       xlink:href="#linearGradient3688"
       gradientUnits="userSpaceOnUse"
       gradientTransform="translate(-1.6271196,0.28135524)" />
    <linearGradient
       x1="45.447727"
       y1="92.539597"
       x2="45.447727"
       y2="7.0165396"
       id="ButtonShadow-0"
       gradientUnits="userSpaceOnUse"
       gradientTransform="matrix(1.0058652,0,0,0.994169,100,0)">
      <stop
         id="stop3750-8"
         style="stop-color:#000000;stop-opacity:1"
         offset="0" />
      <stop
         id="stop3752-5"
         style="stop-color:#000000;stop-opacity:0.58823532"
         offset="1" />
    </linearGradient>
    <linearGradient
       x1="32.251034"
       y1="6.1317081"
       x2="32.251034"
       y2="90.238609"
       id="linearGradient3780"
       xlink:href="#ButtonShadow-0"
       gradientUnits="userSpaceOnUse"
       gradientTransform="matrix(1.0238095,0,0,1.0119048,-1.1428571,-98.071429)" />
    <linearGradient
       x1="32.251034"
       y1="6.1317081"
       x2="32.251034"
       y2="90.238609"
       id="linearGradient3772"
       xlink:href="#ButtonShadow-0"
       gradientUnits="userSpaceOnUse"
       gradientTransform="matrix(1.0238095,0,0,1.0119048,-1.1428571,-98.071429)" />
    <linearGradient
       x1="32.251034"
       y1="6.1317081"
       x2="32.251034"
       y2="90.238609"
       id="linearGradient3725"
       xlink:href="#ButtonShadow-0"
       gradientUnits="userSpaceOnUse"
       gradientTransform="matrix(1.0238095,0,0,1.0119048,-1.1428571,-98.071429)" />
    <linearGradient
       x1="32.251034"
       y1="6.1317081"
       x2="32.251034"
       y2="90.238609"
       id="linearGradient3721"
       xlink:href="#ButtonShadow-0"
       gradientUnits="userSpaceOnUse"
       gradientTransform="translate(0,-97)" />
    <linearGradient
       x1="32.251034"
       y1="6.1317081"
       x2="32.251034"
       y2="90.238609"
       id="linearGradient3026"
       xlink:href="#ButtonShadow-0"
       gradientUnits="userSpaceOnUse"
       gradientTransform="matrix(1.0238095,0,0,1.0119048,-1.1428571,-98.071429)" />
    <linearGradient
       x1="62.336792"
       y1="79.015236"
       x2="62.336792"
       y2="12.797539"
       id="linearGradient2936"
       xlink:href="#linearGradient3694"
       gradientUnits="userSpaceOnUse"
       gradientTransform="matrix(0.87485882,0,0,0.90698611,2.762671,6.33428)" />
    <linearGradient
       x1="55"
       y1="18"
       x2="55"
       y2="112"
       id="linearGradient3831"
       xlink:href="#linearGradient3825"
       gradientUnits="userSpaceOnUse" />
    <linearGradient
       x1="32.251034"
       y1="6.1317081"
       x2="32.251034"
       y2="90.238609"
       id="linearGradient3772-3"
       xlink:href="#ButtonShadow-0"
       gradientUnits="userSpaceOnUse"
       gradientTransform="matrix(1.0238095,0,0,-1.0291853,-1.142857,100.44375)" />
    <linearGradient
       x1="32.251034"
       y1="6.1317081"
       x2="32.251034"
       y2="90.238609"
       id="linearGradient3721-5"
       xlink:href="#ButtonShadow-0"
       gradientUnits="userSpaceOnUse"
       gradientTransform="matrix(0.25,0,0,-0.25714285,0,24.617857)" />
    <linearGradient
       x1="36.357143"
       y1="6"
       x2="36.357143"
       y2="63.893143"
       id="linearGradient3188-6"
       xlink:href="#linearGradient3737-2"
       gradientUnits="userSpaceOnUse"
       gradientTransform="translate(-1.6278693,0.19593578)" />
    <linearGradient
       id="linearGradient3737-2">
      <stop
         id="stop3739-6"
         style="stop-color:#ffffff;stop-opacity:1"
         offset="0" />
      <stop
         id="stop3741-1"
         style="stop-color:#ffffff;stop-opacity:0.38288289"
         offset="1" />
    </linearGradient>
    <clipPath
       id="clipPath3613-7">
      <rect
         width="84"
         height="84"
         rx="6"
         ry="6"
         x="6"
         y="6"
         id="rect3615-5"
         style="fill:#ffffff;fill-opacity:1;fill-rule:nonzero;stroke:none" />
    </clipPath>
    <filter
       style="color-interpolation-filters:sRGB"
       x="-0.192"
       y="-0.192"
       width="1.3839999"
       height="1.3839999"
       id="filter3794-3">
      <feGaussianBlur
         id="feGaussianBlur3796-5"
         stdDeviation="5.28" />
    </filter>
    <linearGradient
       x1="48"
       y1="90"
       x2="48"
       y2="5.9877172"
       id="linearGradient3617-6"
       xlink:href="#linearGradient3688-6"
       gradientUnits="userSpaceOnUse" />
    <linearGradient
       id="linearGradient3688-6">
      <stop
         id="stop3690-2"
         style="stop-color:#c00808;stop-opacity:1"
         offset="0" />
      <stop
         id="stop3692-9"
         style="stop-color:#f21212;stop-opacity:1"
         offset="1" />
    </linearGradient>
    <linearGradient
       gradientTransform="translate(-1.328e-4,-3e-5)"
       x1="48"
       y1="90"
       x2="48"
       y2="5.9877172"
       id="linearGradient3617-3"
       xlink:href="#linearGradient3688-1"
       gradientUnits="userSpaceOnUse" />
    <linearGradient
       id="linearGradient3688-1">
      <stop
         offset="0"
         style="stop-color:#790505;stop-opacity:1"
         id="stop4630" />
      <stop
         offset="1"
         style="stop-color:#bd0b0b;stop-opacity:1"
         id="stop4632" />
    </linearGradient>
    <radialGradient
       cx="48"
       cy="90.171875"
       r="42"
       fx="48"
       fy="90.171875"
       id="radialGradient3619-2"
       xlink:href="#linearGradient3737"
       gradientUnits="userSpaceOnUse"
       gradientTransform="matrix(1.1573129,0,0,0.99590774,-7.5510206,0.19713193)" />
    <linearGradient
       x1="32.251034"
       y1="6.1317081"
       x2="32.251034"
       y2="90.238609"
       id="linearGradient3772-36"
       xlink:href="#ButtonShadow-0"
       gradientUnits="userSpaceOnUse"
       gradientTransform="matrix(1.0238095,0,0,-1.0119048,-1.1428571,98.071429)" />
    <linearGradient
       x1="32.251034"
       y1="6.1317081"
       x2="32.251034"
       y2="90.238609"
       id="linearGradient3721-6"
       xlink:href="#ButtonShadow-0"
       gradientUnits="userSpaceOnUse"
       gradientTransform="matrix(1,0,0,-1,0,97)" />
    <linearGradient
       x1="36.357143"
       y1="6"
       x2="36.357143"
       y2="63.893143"
       id="linearGradient3188-6-8"
       xlink:href="#linearGradient3737-2"
       gradientUnits="userSpaceOnUse"
       gradientTransform="translate(-7.497e-4)" />
    <linearGradient
       x1="48"
       y1="90"
       x2="48"
       y2="5.9877172"
       id="linearGradient3617-8"
       xlink:href="#linearGradient3688"
       gradientUnits="userSpaceOnUse" />
    <linearGradient
       gradientTransform="translate(-1.328e-4,-3e-5)"
       x1="48"
       y1="90"
       x2="48"
       y2="5.9877172"
       id="linearGradient3617-3-4"
       xlink:href="#linearGradient3688-9"
       gradientUnits="userSpaceOnUse" />
    <linearGradient
       id="linearGradient3688-9">
      <stop
         offset="0"
         style="stop-color:#790d05;stop-opacity:1"
         id="stop4630-5" />
      <stop
         offset="1"
         style="stop-color:#bd170b;stop-opacity:1"
         id="stop4632-0" />
    </linearGradient>
    <linearGradient
       x1="36.357143"
       y1="6"
       x2="36.357143"
       y2="63.893143"
       id="linearGradient3188-4"
       xlink:href="#linearGradient3737"
       gradientUnits="userSpaceOnUse" />
    <radialGradient
       cx="48"
       cy="90.171875"
       r="42"
       fx="48"
       fy="90.171875"
       id="radialGradient3619-1"
       xlink:href="#linearGradient3737"
       gradientUnits="userSpaceOnUse"
       gradientTransform="matrix(1.1573129,0,0,0.99590774,-7.5510206,0.19713193)" />
    <linearGradient
       x1="32.251034"
       y1="6.1317081"
       x2="32.251034"
       y2="90.238609"
       id="linearGradient3780-7"
       xlink:href="#ButtonShadow-0"
       gradientUnits="userSpaceOnUse"
       gradientTransform="matrix(1.0238095,0,0,-1.0119048,-1.142857,98.071429)" />
  </defs>
  <metadata
     id="metadata2413">
    <rdf:RDF>
      <cc:Work
         rdf:about="">
        <dc:format>image/svg+xml</dc:format>
        <dc:type
           rdf:resource="http://purl.org/dc/dcmitype/StillImage" />
        <dc:title></dc:title>
      </cc:Work>
    </rdf:RDF>
  </metadata>
  <g
     id="layer5-3"
     style="display:inline"
     transform="matrix(0.25,0,0,0.25,0,-0.77500019)">
    <path
       style="display:inline;opacity:0.2;fill:url(#linearGradient3772-3);fill-opacity:1;fill-rule:nonzero;stroke:none;stroke-width:1.00850248"
       d="m 12,6.803126 c -4.409133,0 -8,3.648383 -8,8.132812 V 87.14688 c 0,4.48442 3.590867,8.14062 8,8.14062 h 72 c 4.40913,0 8,-3.6562 8,-8.14062 V 14.935938 C 92,10.451509 88.40913,6.803126 84,6.803126 Z m 3.265625,9.382812 H 22.0625 c 0.8864,0 1.60156,0.715163 1.60156,1.601563 v 6.804687 c 0,0.8864 -0.71516,1.59375 -1.60156,1.59375 h -6.796875 c -0.8864,0 -1.601563,-0.70735 -1.601563,-1.59375 v -6.804687 c 0,-0.8864 0.715163,-1.601563 1.601563,-1.601563 z m 58.695315,0.242188 h 6.80468 c 0.8864,0 1.59376,0.715163 1.59376,1.601563 v 6.796875 c 0,0.8864 -0.70736,1.601562 -1.59376,1.601562 h -6.80468 c -0.8864,1e-6 -1.60156,-0.715162 -1.60156,-1.601562 v -6.796876 c 0,-0.8864 0.71516,-1.601564 1.60156,-1.601562 z M 15.265625,36.185938 H 22.0625 c 0.8864,0 1.60156,0.715163 1.60156,1.601563 v 6.804688 c 0,0.8864 -0.71516,1.593748 -1.60156,1.593748 h -6.796875 c -0.8864,0 -1.601563,-0.707348 -1.601563,-1.593748 v -6.804688 c 0,-0.8864 0.715163,-1.601563 1.601563,-1.601563 z m 58.695315,0.242188 h 6.80468 c 0.8864,0 1.59376,0.715163 1.59376,1.601563 v 6.796876 c 0,0.8864 -0.70736,1.60156 -1.59376,1.60156 h -6.80468 c -0.8864,0 -1.60156,-0.71516 -1.60156,-1.60156 v -6.796877 c 0,-0.8864 0.71516,-1.601562 1.60156,-1.601562 z M 15.265625,56.185937 H 22.0625 c 0.8864,0 1.60156,0.715164 1.60156,1.601564 v 6.804688 c 0,0.8864 -0.71516,1.593748 -1.60156,1.593748 h -6.796875 c -0.8864,0 -1.601563,-0.707348 -1.601563,-1.593748 v -6.804688 c 0,-0.8864 0.715163,-1.601564 1.601563,-1.601564 z m 58.695315,0.2422 h 6.80468 c 0.8864,0 1.59376,0.715164 1.59376,1.601564 v 6.796876 c 0,0.8864 -0.70736,1.60156 -1.59376,1.60156 h -6.80468 c -0.8864,0 -1.60156,-0.71516 -1.60156,-1.60156 v -6.796876 c 0,-0.8864 0.71516,-1.601564 1.60156,-1.601564 z m -58.695315,19.7578 H 22.0625 c 0.8864,0 1.60156,0.715164 1.60156,1.601564 v 6.804689 c 0,0.8864 -0.71516,1.59375 -1.60156,1.59375 h -6.796875 c -0.8864,0 -1.601563,-0.70735 -1.601563,-1.59375 v -6.804689 c 0,-0.8864 0.715163,-1.601564 1.601563,-1.601564 z m 58.695315,0.2422 h 6.80468 c 0.8864,0 1.59376,0.715164 1.59376,1.601564 v 6.796879 c 0,0.8864 -0.70736,1.60156 -1.59376,1.60156 h -6.80468 c -0.8864,0 -1.60156,-0.71516 -1.60156,-1.60156 v -6.796879 c 0,-0.8864 0.71516,-1.601564 1.60156,-1.601564 z"
       id="path3770-5"
       inkscape:connector-curvature="0" />
    <path
       style="display:inline;opacity:0.45;fill:url(#linearGradient3721-5);fill-opacity:1;fill-rule:nonzero;stroke:none;stroke-width:0.25354627"
       d="m 3,1.4746094 c -0.831,0 -1.5,0.6882259 -1.5,1.5429687 V 21.53125 c 0,0.854743 0.669,1.542969 1.5,1.542969 h 18 c 0.831,0 1.5,-0.688226 1.5,-1.542969 V 3.0175781 C 22.5,2.1628353 21.831,1.4746094 21,1.4746094 Z m 0.8164062,1.796875 H 5.515625 c 0.2216,0 0.4003906,0.1787906 0.4003906,0.4003906 v 1.7011719 c 0,0.2216 -0.1787906,0.3984375 -0.4003906,0.3984375 H 3.8164062 c -0.2216,0 -0.4003906,-0.1768375 -0.4003906,-0.3984375 V 3.671875 c 0,-0.2216 0.1787906,-0.4003906 0.4003906,-0.4003906 z m 14.6738278,0.060547 h 1.701172 c 0.2216,0 0.398438,0.1787907 0.398438,0.4003907 v 1.6992187 c 0,0.2216 -0.176838,0.4003906 -0.398438,0.4003906 h -1.701172 c -0.2216,2e-7 -0.40039,-0.1787906 -0.40039,-0.4003906 V 3.7324219 c 0,-0.2216 0.17879,-0.4003907 0.40039,-0.4003905 z M 3.8164062,8.2714844 H 5.515625 c 0.2216,0 0.4003906,0.1787906 0.4003906,0.4003906 v 1.701172 c 0,0.2216 -0.1787906,0.398437 -0.4003906,0.398437 H 3.8164062 c -0.2216,0 -0.4003906,-0.176837 -0.4003906,-0.398437 V 8.671875 c 0,-0.2216 0.1787906,-0.4003906 0.4003906,-0.4003906 z m 14.6738278,0.060547 h 1.701172 c 0.2216,0 0.398438,0.1787907 0.398438,0.4003907 v 1.6992189 c 0,0.2216 -0.176838,0.40039 -0.398438,0.40039 h -1.701172 c -0.2216,0 -0.40039,-0.17879 -0.40039,-0.40039 V 8.7324219 c 0,-0.2216 0.17879,-0.4003907 0.40039,-0.4003905 z M 3.8164062,13.271484 H 5.515625 c 0.2216,0 0.4003906,0.178791 0.4003906,0.400391 v 1.701172 c 0,0.2216 -0.1787906,0.398437 -0.4003906,0.398437 H 3.8164062 c -0.2216,0 -0.4003906,-0.176837 -0.4003906,-0.398437 v -1.701172 c 0,-0.2216 0.1787906,-0.400391 0.4003906,-0.400391 z m 14.6738278,0.06055 h 1.701172 c 0.2216,0 0.398438,0.178791 0.398438,0.400391 v 1.699219 c 0,0.2216 -0.176838,0.40039 -0.398438,0.40039 h -1.701172 c -0.2216,0 -0.40039,-0.17879 -0.40039,-0.40039 v -1.699219 c 0,-0.2216 0.17879,-0.400391 0.40039,-0.400391 z M 3.8164062,18.271484 H 5.515625 c 0.2216,0 0.4003906,0.178791 0.4003906,0.400391 v 1.701172 c 0,0.2216 -0.1787906,0.398437 -0.4003906,0.398437 H 3.8164062 c -0.2216,0 -0.4003906,-0.176837 -0.4003906,-0.398437 v -1.701172 c 0,-0.2216 0.1787906,-0.400391 0.4003906,-0.400391 z m 14.6738278,0.06055 h 1.701172 c 0.2216,0 0.398438,0.178791 0.398438,0.400391 v 1.699219 c 0,0.2216 -0.176838,0.40039 -0.398438,0.40039 h -1.701172 c -0.2216,0 -0.40039,-0.17879 -0.40039,-0.40039 v -1.699219 c 0,-0.2216 0.17879,-0.400391 0.40039,-0.400391 z"
       transform="matrix(4,0,0,4,0,3.1000008)"
       id="rect3716-6"
       inkscape:connector-curvature="0" />
  </g>
  <g
     id="layer2"
     style="display:none"
     transform="translate(0,-72)">
    <rect
       width="86"
       height="85"
       rx="6"
       ry="6"
       x="5"
       y="7"
       id="rect3745"
       style="opacity:0.9;fill:url(#ButtonShadow);fill-opacity:1;fill-rule:nonzero;stroke:none;filter:url(#filter3174)" />
  </g>
  <g
     id="layer1"
     transform="matrix(0.25,0,0,0.25,0.4067799,-0.09533922)">
    <path
       style="opacity:0.4;fill:url(#linearGradient3188-6);fill-opacity:1;fill-rule:nonzero;stroke:none;stroke-width:1"
       d="m 10.37288,6.1959357 c -2.3020553,0 -4.2666333,1.30196 -5.2734373,3.195312 -0.01072,0.01968 -0.0286,0.03488 -0.03908,0.05469 -0.01204,0.0228 -0.01928,0.04758 -0.03124,0.07031 -0.08723,0.173992 -0.171868,0.347992 -0.242188,0.5312503 -0.03036,0.07203 -0.0757,0.13566 -0.101564,0.210936 -0.01036,0.03016 -0.02136,0.06337 -0.03124,0.09375 -0.03548,0.109028 -0.04524,0.229324 -0.07031,0.343748 -0.04528,0.175692 -0.08772,0.349608 -0.117188,0.53125 -0.05149,0.317418 -0.09375,0.636356 -0.09375,0.968756 v 2 67.999999 2 c 0,0.33472 0.04135,0.6507 0.09375,0.968752 0.02948,0.18164 0.0719,0.35556 0.117188,0.531248 0.02508,0.11444 0.03484,0.23472 0.07031,0.34376 0.0099,0.0304 0.02088,0.0636 0.03124,0.09376 0.02588,0.07528 0.07121,0.13892 0.101564,0.210921 0.07032,0.183239 0.154952,0.35724 0.242188,0.531251 0.01196,0.0228 0.0192,0.04752 0.03124,0.07032 0.01048,0.0196 0.02832,0.0352 0.03908,0.05468 1.006806,1.893348 2.971385,3.195308 5.2734393,3.195308 h 72.000006 c 2.30205,0 4.26663,-1.30196 5.27343,-3.195312 0.0104,-0.0196 0.0288,-0.0348 0.0392,-0.05468 0.012,-0.0228 0.0192,-0.0476 0.0312,-0.07032 0.0862,-0.17192 0.17248,-0.34248 0.2422,-0.52344 0.0312,-0.07412 0.0749,-0.141199 0.10156,-0.21876 0.0104,-0.0308 0.0212,-0.06276 0.0312,-0.09376 0.042,-0.12904 0.0578,-0.27008 0.0859,-0.406252 0.0336,-0.13728 0.0618,-0.27316 0.0859,-0.414063 0.003,-0.0188 0.0124,-0.036 0.0156,-0.05468 0.0524,-0.318032 0.0938,-0.634012 0.0938,-0.968732 v -2 -67.999999 -2 c 0,-0.33472 -0.0414,-0.6507 -0.0938,-0.96875 -0.003,-0.01876 -0.0124,-0.03592 -0.0156,-0.05469 -0.024,-0.140888 -0.0522,-0.276772 -0.0859,-0.414063 -0.028,-0.136152 -0.044,-0.277212 -0.0859,-0.40625 -0.01,-0.031 -0.0208,-0.06297 -0.0312,-0.09375 -0.0268,-0.07756 -0.0702,-0.144616 -0.10156,-0.218748 -0.0697,-0.1809643 -0.156,-0.3515283 -0.2422,-0.5234373 -0.0116,-0.02284 -0.0196,-0.04764 -0.0312,-0.07031 -0.0104,-0.0198 -0.0284,-0.035 -0.0392,-0.05469 -1.0068,-1.893356 -2.97138,-3.195316 -5.27343,-3.195316 z m 2.343555,4.1011173 h 2 62.989653 2 c 2.78184,0 4.43431,1.329218 4.43431,4.111066 v 1.999999 l 0.0808,64.605885 c 0.003,2.781844 -1.16758,5.323252 -3.94943,5.323252 h -1.83838 -63.716954 -2 c -2.7818475,0 -4.1918775,-1.652476 -4.1918775,-4.434316 v -2 l 0.08081,-63.414009 v -1.999999 c 0,-2.781848 1.329218,-4.191878 4.1110665,-4.191878 z"
       id="rect3728"
       inkscape:connector-curvature="0"
       sodipodi:nodetypes="scccccccssccsccccccccsscccccccccsccscccccccccsssccsscssccssccss" />
  </g>
  <g
     id="layer4"
     transform="translate(0,-72)" />
  <g
     transform="matrix(0.25,0,0,0.25,-1e-7,-0.04635529)"
     id="layer1-2">
    <path
       style="fill:url(#linearGradient3617-6);fill-opacity:1;fill-rule:nonzero;stroke:none"
       d="m 6,48 v 36 c 0,3.324 2.676,6 6,6 h 72 c 3.324,0 6,-2.676 6,-6 V 48 Z m 9.263672,5.275391 h 6.800781 c 0.8864,0 1.59961,0.713209 1.599609,1.599609 v 6.798828 c 2e-6,0.8864 -0.713209,1.601563 -1.599609,1.601563 h -6.800781 c -0.8864,0 -1.59961,-0.715163 -1.59961,-1.601563 V 54.875 c 0,-0.8864 0.71321,-1.599609 1.59961,-1.599609 z m 58.699219,0.238281 h 6.798828 c 0.8864,0 1.599609,0.713209 1.599609,1.599609 v 6.800781 c 0,0.886401 -0.713209,1.59961 -1.599609,1.59961 h -6.798828 c -0.8864,0 -1.601563,-0.713206 -1.601563,-1.59961 v -6.800781 c 0,-0.8864 0.715163,-1.599609 1.601563,-1.599609 z M 15.263672,73.275391 h 6.800781 c 0.8864,0 1.599609,0.713209 1.599609,1.599609 v 6.798828 c 10e-7,0.8864 -0.713209,1.601563 -1.599609,1.601563 h -6.800781 c -0.8864,0 -1.59961,-0.715163 -1.59961,-1.601563 V 74.875 c 0,-0.8864 0.71321,-1.599609 1.59961,-1.599609 z m 58.699219,0.238281 h 6.798828 c 0.8864,0 1.599609,0.713209 1.599609,1.599609 v 6.800781 c 0,0.886403 -0.713209,1.59961 -1.599609,1.59961 h -6.798828 c -0.8864,0 -1.601563,-0.713207 -1.601563,-1.59961 v -6.800781 c 0,-0.8864 0.715163,-1.599609 1.601563,-1.599609 z"
       id="rect2419-6"
       inkscape:connector-curvature="0" />
    <path
       style="fill:url(#linearGradient3617-3);fill-opacity:1;fill-rule:nonzero;stroke:none"
       d="M 12,6 C 8.676,6 6,8.676 6,12 V 48 H 90 V 12 c -10e-7,-3.324 -2.676001,-6 -6,-6 z m 3.263672,7.275391 h 6.800781 c 0.8864,0 1.599611,0.713209 1.599609,1.599609 v 6.798828 c 2e-6,0.8864 -0.713209,1.601563 -1.599609,1.601563 h -6.800781 c -0.8864,0 -1.59961,-0.715163 -1.59961,-1.601563 V 14.875 c 0,-0.8864 0.71321,-1.599609 1.59961,-1.599609 z m 58.699219,0.238281 h 6.798828 c 0.8864,0 1.599609,0.713209 1.599609,1.599609 v 6.800781 c 0,0.886401 -0.713209,1.59961 -1.599609,1.59961 h -6.798828 c -0.8864,0 -1.601563,-0.713208 -1.601563,-1.59961 v -6.800781 c 0,-0.8864 0.715163,-1.599609 1.601563,-1.599609 z M 15.263672,33.275391 h 6.800781 c 0.8864,0 1.599611,0.713209 1.599609,1.599609 v 6.798828 c 2e-6,0.8864 -0.713209,1.601563 -1.599609,1.601563 h -6.800781 c -0.8864,0 -1.59961,-0.715163 -1.59961,-1.601563 V 34.875 c 0,-0.8864 0.71321,-1.599609 1.59961,-1.599609 z m 58.699219,0.238281 h 6.798828 c 0.8864,0 1.599609,0.713209 1.599609,1.599609 v 6.800781 c 0,0.886401 -0.713209,1.59961 -1.599609,1.59961 h -6.798828 c -0.8864,0 -1.601563,-0.713209 -1.601563,-1.59961 v -6.800781 c 0,-0.8864 0.715163,-1.599609 1.601563,-1.599609 z"
       id="rect2419-5"
       inkscape:connector-curvature="0" />
    <path
       style="opacity:1;vector-effect:none;fill:#000000;fill-opacity:0.10196078;stroke:none;stroke-width:0.45393926;stroke-linecap:butt;stroke-linejoin:miter;stroke-miterlimit:4;stroke-dasharray:none;stroke-dashoffset:0;stroke-opacity:1"
       d="m 73.546091,12.44593 c -0.994571,0 -1.794922,0.805309 -1.794922,1.806641 v 7.68164 c 0,1.001332 0.800351,1.808594 1.794922,1.808594 h 7.63086 c 0.994571,0 1.794922,-0.807262 1.794922,-1.808594 v -7.68164 c 0,-1.001332 -0.800351,-1.806641 -1.794922,-1.806641 z m 0.416016,1.06836 h 6.800781 c 0.8864,0 1.599609,0.713209 1.599609,1.599609 v 6.798828 c 10e-7,0.8864 -0.713209,1.601563 -1.599609,1.601563 h -6.800781 c -0.8864,0 -1.59961,-0.715163 -1.59961,-1.601563 v -6.798828 c 0,-0.8864 0.71321,-1.599609 1.59961,-1.599609 z"
       id="rect4635-2-3-2-2-5-91"
       inkscape:connector-curvature="0" />
    <path
       style="opacity:1;vector-effect:none;fill:#060606;fill-opacity:0.49803922;stroke:none;stroke-width:0.41273755;stroke-linecap:butt;stroke-linejoin:miter;stroke-miterlimit:4;stroke-dasharray:none;stroke-dashoffset:0;stroke-opacity:1"
       d="m 73.962395,23.514442 c -0.8864,1e-6 -1.599609,-0.715162 -1.599609,-1.601562 v -0.478516 c 0,0.8864 0.713209,1.59961 1.599609,1.59961 h 6.798828 c 0.8864,0 1.601563,-0.71321 1.601563,-1.59961 v 0.478516 c 0,0.8864 -0.715163,1.601563 -1.601563,1.601562 z m -1.599609,-8.40039 v -0.402344 c 0,-0.928832 0.713209,-1.677735 1.599609,-1.677735 h 6.798828 c 0.8864,0 1.601563,0.748903 1.601563,1.677735 v 0.402344 c 0,-0.8864 -0.715163,-1.599611 -1.601563,-1.599611 h -6.798828 c -0.8864,0 -1.599609,0.713211 -1.599609,1.599611 z"
       id="rect4635-2-2-8-1-7-5"
       inkscape:connector-curvature="0" />
    <path
       style="opacity:1;vector-effect:none;fill:#000000;fill-opacity:0.10196078;stroke:none;stroke-width:0.45393926;stroke-linecap:butt;stroke-linejoin:miter;stroke-miterlimit:4;stroke-dasharray:none;stroke-dashoffset:0;stroke-opacity:1"
       d="m 73.546091,32.445938 c -0.994571,0 -1.794922,0.805309 -1.794922,1.806641 v 7.68164 c 0,1.001332 0.800351,1.808594 1.794922,1.808594 h 7.63086 c 0.994571,0 1.794922,-0.807262 1.794922,-1.808594 v -7.68164 c 0,-1.001332 -0.800351,-1.806641 -1.794922,-1.806641 z m 0.416016,1.06836 h 6.800781 c 0.8864,0 1.599609,0.713209 1.599609,1.599609 v 6.798828 c 10e-7,0.8864 -0.713209,1.601563 -1.599609,1.601563 h -6.800781 c -0.8864,0 -1.59961,-0.715163 -1.59961,-1.601563 v -6.798828 c 0,-0.8864 0.71321,-1.599609 1.59961,-1.599609 z"
       id="rect4635-2-3-2-2-5-9-7"
       inkscape:connector-curvature="0" />
    <path
       style="opacity:1;vector-effect:none;fill:#060606;fill-opacity:0.49803922;stroke:none;stroke-width:0.41273755;stroke-linecap:butt;stroke-linejoin:miter;stroke-miterlimit:4;stroke-dasharray:none;stroke-dashoffset:0;stroke-opacity:1"
       d="m 73.962395,43.51445 c -0.8864,1e-6 -1.599609,-0.715162 -1.599609,-1.601562 v -0.478516 c 0,0.8864 0.713209,1.59961 1.599609,1.59961 h 6.798828 c 0.8864,0 1.601563,-0.71321 1.601563,-1.59961 v 0.478516 c 0,0.8864 -0.715163,1.601563 -1.601563,1.601562 z m -1.599609,-8.40039 v -0.402344 c 0,-0.928832 0.713209,-1.677735 1.599609,-1.677735 h 6.798828 c 0.8864,0 1.601563,0.748903 1.601563,1.677735 v 0.402344 c 0,-0.8864 -0.715163,-1.599611 -1.601563,-1.599611 h -6.798828 c -0.8864,0 -1.599609,0.713211 -1.599609,1.599611 z"
       id="rect4635-2-2-8-1-7-6-8"
       inkscape:connector-curvature="0" />
    <path
       style="opacity:0.4;fill:url(#linearGradient3188-6-8);fill-opacity:1;fill-rule:nonzero;stroke:none;stroke-width:1"
       d="m 12,5.9999993 c -2.3020557,0 -4.2666337,1.30196 -5.2734377,3.195312 -0.01072,0.01968 -0.0286,0.03488 -0.03908,0.05469 -0.01204,0.0228 -0.01928,0.04758 -0.03124,0.07031 -0.08723,0.173992 -0.171868,0.347992 -0.242188,0.531251 -0.03036,0.07203 -0.0757,0.13566 -0.101564,0.2109357 -0.01036,0.03016 -0.02136,0.06337 -0.03124,0.09375 -0.03548,0.109028 -0.04524,0.229324 -0.07031,0.343748 -0.04528,0.175692 -0.08772,0.349608 -0.117188,0.53125 -0.05149,0.31742 -0.09375,0.636358 -0.09375,0.968758 v 2 68.000005 2 c 0,0.33472 0.04135,0.6507 0.09375,0.96875 0.02948,0.18164 0.0719,0.35556 0.117188,0.53125 0.02508,0.11444 0.03484,0.23472 0.07031,0.34376 0.0099,0.0304 0.02088,0.0636 0.03124,0.0938 0.02588,0.0753 0.07121,0.13892 0.101564,0.21092 0.07032,0.18324 0.154952,0.35724 0.242188,0.53125 0.01196,0.0228 0.0192,0.0475 0.03124,0.0703 0.01048,0.0196 0.02832,0.0352 0.03908,0.0547 1.006806,1.89335 2.971385,3.19531 5.2734397,3.19531 h 72.000004 c 2.302052,0 4.266632,-1.30196 5.273432,-3.19532 0.0104,-0.0196 0.0288,-0.0348 0.0392,-0.0547 0.012,-0.0228 0.0192,-0.0476 0.0312,-0.0703 0.0862,-0.17192 0.17248,-0.34248 0.2422,-0.52344 0.0312,-0.0741 0.07492,-0.1412 0.10156,-0.21876 0.0104,-0.0308 0.0212,-0.0628 0.0312,-0.0938 0.042,-0.12904 0.0578,-0.27008 0.08592,-0.40625 0.0336,-0.13728 0.0618,-0.27316 0.08588,-0.41406 0.003,-0.0188 0.0124,-0.036 0.0156,-0.0547 0.0524,-0.31804 0.0938,-0.63401 0.0938,-0.96873 v -2 -68.000004 -2 c 0,-0.33472 -0.0414,-0.6507 -0.0938,-0.96875 -0.003,-0.01876 -0.0124,-0.03592 -0.0156,-0.05469 -0.024,-0.140888 -0.0522,-0.276772 -0.08588,-0.414063 -0.028,-0.136152 -0.044,-0.277212 -0.08592,-0.40625 -0.01,-0.031 -0.0208,-0.06297 -0.0312,-0.09375 -0.0268,-0.07756 -0.0702,-0.1446157 -0.10156,-0.2187477 -0.06968,-0.180965 -0.156,-0.351529 -0.2422,-0.523438 -0.0116,-0.02284 -0.0196,-0.04764 -0.0312,-0.07031 -0.0104,-0.0198 -0.0284,-0.035 -0.0392,-0.05469 -1.0068,-1.89336 -2.97138,-3.19532 -5.273432,-3.19532 z m 2.343555,4.1011177 h 2 62.989651 2 c 2.78184,0 4.434312,1.329218 4.434312,4.111066 v 1.999998 l 0.0808,64.605886 c 0.003,2.78184 -1.16758,5.32325 -3.949432,5.32325 h -1.83838 -63.716952 -2.000001 c -2.781847,0 -4.191877,-1.65247 -4.191877,-4.43431 v -2 l 0.08081,-63.414014 v -1.999998 c 0,-2.781848 1.329218,-4.191878 4.111069,-4.191878 z"
       id="rect3728-2"
       inkscape:connector-curvature="0"
       sodipodi:nodetypes="scccccccssccsccccccccsscccccccccsccscccccccccsssccsscssccssccss" />
    <path
       style="opacity:1;vector-effect:none;fill:#000000;fill-opacity:0.10196078;stroke:none;stroke-width:0.45393923;stroke-linecap:butt;stroke-linejoin:miter;stroke-miterlimit:4;stroke-dasharray:none;stroke-dashoffset:0;stroke-opacity:1"
       d="m 73.546093,52.445938 c -0.994571,0 -1.794922,0.805309 -1.794922,1.806641 v 7.68164 c 0,1.001332 0.800351,1.808594 1.794922,1.808594 h 7.63086 c 0.994571,0 1.794922,-0.807262 1.794922,-1.808594 v -7.68164 c 0,-1.001332 -0.800351,-1.806641 -1.794922,-1.806641 z m 0.416016,1.06836 h 6.800781 c 0.8864,0 1.599609,0.713209 1.599609,1.599609 v 6.798828 c 10e-7,0.8864 -0.713209,1.601563 -1.599609,1.601563 h -6.800781 c -0.8864,0 -1.59961,-0.715163 -1.59961,-1.601563 v -6.798828 c 0,-0.8864 0.71321,-1.599609 1.59961,-1.599609 z"
       id="rect4635-2-3-2-2-5-91-8"
       inkscape:connector-curvature="0" />
    <path
       style="opacity:1;vector-effect:none;fill:#060606;fill-opacity:0.49803922;stroke:none;stroke-width:0.41273755;stroke-linecap:butt;stroke-linejoin:miter;stroke-miterlimit:4;stroke-dasharray:none;stroke-dashoffset:0;stroke-opacity:1"
       d="m 73.962397,63.51445 c -0.8864,1e-6 -1.599609,-0.715162 -1.599609,-1.601562 v -0.478516 c 0,0.8864 0.713209,1.59961 1.599609,1.59961 h 6.798828 c 0.8864,0 1.601563,-0.71321 1.601563,-1.59961 v 0.478516 c 0,0.8864 -0.715163,1.601563 -1.601563,1.601562 z m -1.599609,-8.40039 v -0.402344 c 0,-0.928832 0.713209,-1.677735 1.599609,-1.677735 h 6.798828 c 0.8864,0 1.601563,0.748903 1.601563,1.677735 v 0.402344 c 0,-0.8864 -0.715163,-1.599611 -1.601563,-1.599611 h -6.798828 c -0.8864,0 -1.599609,0.713211 -1.599609,1.599611 z"
       id="rect4635-2-2-8-1-7-5-5"
       inkscape:connector-curvature="0" />
    <path
       style="opacity:1;vector-effect:none;fill:#000000;fill-opacity:0.10196078;stroke:none;stroke-width:0.45393923;stroke-linecap:butt;stroke-linejoin:miter;stroke-miterlimit:4;stroke-dasharray:none;stroke-dashoffset:0;stroke-opacity:1"
       d="m 73.546093,72.445936 c -0.994571,0 -1.794922,0.805309 -1.794922,1.806641 v 7.68164 c 0,1.001332 0.800351,1.808594 1.794922,1.808594 h 7.63086 c 0.994571,0 1.794922,-0.807262 1.794922,-1.808594 v -7.68164 c 0,-1.001332 -0.800351,-1.806641 -1.794922,-1.806641 z m 0.416016,1.06836 h 6.800781 c 0.8864,0 1.599609,0.713209 1.599609,1.599609 v 6.798828 c 10e-7,0.8864 -0.713209,1.601563 -1.599609,1.601563 h -6.800781 c -0.8864,0 -1.59961,-0.715163 -1.59961,-1.601563 v -6.798828 c 0,-0.8864 0.71321,-1.599609 1.59961,-1.599609 z"
       id="rect4635-2-3-2-2-5-91-9"
       inkscape:connector-curvature="0" />
    <path
       style="opacity:1;vector-effect:none;fill:#060606;fill-opacity:0.49803922;stroke:none;stroke-width:0.41273755;stroke-linecap:butt;stroke-linejoin:miter;stroke-miterlimit:4;stroke-dasharray:none;stroke-dashoffset:0;stroke-opacity:1"
       d="m 73.962397,83.514448 c -0.8864,10e-7 -1.599609,-0.715162 -1.599609,-1.601562 V 81.43437 c 0,0.8864 0.713209,1.59961 1.599609,1.59961 h 6.798828 c 0.8864,0 1.601563,-0.71321 1.601563,-1.59961 v 0.478516 c 0,0.8864 -0.715163,1.601563 -1.601563,1.601562 z m -1.599609,-8.40039 v -0.402344 c 0,-0.928832 0.713209,-1.677735 1.599609,-1.677735 h 6.798828 c 0.8864,0 1.601563,0.748903 1.601563,1.677735 v 0.402344 c 0,-0.8864 -0.715163,-1.599611 -1.601563,-1.599611 h -6.798828 c -0.8864,0 -1.599609,0.713211 -1.599609,1.599611 z"
       id="rect4635-2-2-8-1-7-5-7"
       inkscape:connector-curvature="0" />
    <path
       style="opacity:1;vector-effect:none;fill:#000000;fill-opacity:0.10196078;stroke:none;stroke-width:0.45393923;stroke-linecap:butt;stroke-linejoin:miter;stroke-miterlimit:4;stroke-dasharray:none;stroke-dashoffset:0;stroke-opacity:1"
       d="m 14.847658,52.207039 c -0.994571,0 -1.794922,0.805309 -1.794922,1.806641 v 7.68164 c 0,1.001332 0.800351,1.808594 1.794922,1.808594 h 7.63086 c 0.99457,0 1.794921,-0.807262 1.794921,-1.808594 v -7.68164 c 0,-1.001332 -0.800351,-1.806641 -1.794921,-1.806641 z m 0.416016,1.06836 h 6.80078 c 0.8864,0 1.599609,0.713209 1.599609,1.599609 v 6.798828 c 1e-6,0.8864 -0.713209,1.601563 -1.599609,1.601563 h -6.80078 c -0.8864,0 -1.59961,-0.715163 -1.59961,-1.601563 v -6.798828 c 0,-0.8864 0.71321,-1.599609 1.59961,-1.599609 z"
       id="rect4635-2-3-2-2-5-91-8-5"
       inkscape:connector-curvature="0" />
    <path
       style="opacity:1;vector-effect:none;fill:#060606;fill-opacity:0.49803922;stroke:none;stroke-width:0.41273755;stroke-linecap:butt;stroke-linejoin:miter;stroke-miterlimit:4;stroke-dasharray:none;stroke-dashoffset:0;stroke-opacity:1"
       d="m 15.263962,63.275551 c -0.8864,10e-7 -1.599609,-0.715162 -1.599609,-1.601562 v -0.478516 c 0,0.8864 0.713209,1.59961 1.599609,1.59961 h 6.798828 c 0.8864,0 1.601562,-0.71321 1.601562,-1.59961 v 0.478516 c 0,0.8864 -0.715162,1.601563 -1.601562,1.601562 z m -1.599609,-8.40039 v -0.402344 c 0,-0.928832 0.713209,-1.677735 1.599609,-1.677735 h 6.798828 c 0.8864,0 1.601562,0.748903 1.601562,1.677735 v 0.402344 c 0,-0.8864 -0.715162,-1.599611 -1.601562,-1.599611 h -6.798828 c -0.8864,0 -1.599609,0.713211 -1.599609,1.599611 z"
       id="rect4635-2-2-8-1-7-5-5-3"
       inkscape:connector-curvature="0" />
    <path
       style="opacity:1;vector-effect:none;fill:#000000;fill-opacity:0.10196078;stroke:none;stroke-width:0.45393923;stroke-linecap:butt;stroke-linejoin:miter;stroke-miterlimit:4;stroke-dasharray:none;stroke-dashoffset:0;stroke-opacity:1"
       d="m 14.847658,72.207037 c -0.994571,0 -1.794922,0.805309 -1.794922,1.806641 v 7.68164 c 0,1.001332 0.800351,1.808594 1.794922,1.808594 h 7.63086 c 0.99457,0 1.794921,-0.807262 1.794921,-1.808594 v -7.68164 c 0,-1.001332 -0.800351,-1.806641 -1.794921,-1.806641 z m 0.416016,1.06836 h 6.80078 c 0.8864,0 1.599609,0.713209 1.599609,1.599609 v 6.798828 c 1e-6,0.8864 -0.713209,1.601563 -1.599609,1.601563 h -6.80078 c -0.8864,0 -1.59961,-0.715163 -1.59961,-1.601563 v -6.798828 c 0,-0.8864 0.71321,-1.599609 1.59961,-1.599609 z"
       id="rect4635-2-3-2-2-5-91-9-8"
       inkscape:connector-curvature="0" />
    <path
       style="opacity:1;vector-effect:none;fill:#060606;fill-opacity:0.49803922;stroke:none;stroke-width:0.41273755;stroke-linecap:butt;stroke-linejoin:miter;stroke-miterlimit:4;stroke-dasharray:none;stroke-dashoffset:0;stroke-opacity:1"
       d="m 15.263962,83.275549 c -0.8864,10e-7 -1.599609,-0.715162 -1.599609,-1.601562 v -0.478516 c 0,0.8864 0.713209,1.59961 1.599609,1.59961 h 6.798828 c 0.8864,0 1.601562,-0.71321 1.601562,-1.59961 v 0.478516 c 0,0.8864 -0.715162,1.601563 -1.601562,1.601562 z m -1.599609,-8.40039 v -0.402344 c 0,-0.928832 0.713209,-1.677735 1.599609,-1.677735 h 6.798828 c 0.8864,0 1.601562,0.748903 1.601562,1.677735 v 0.402344 c 0,-0.8864 -0.715162,-1.599611 -1.601562,-1.599611 h -6.798828 c -0.8864,0 -1.599609,0.713211 -1.599609,1.599611 z"
       id="rect4635-2-2-8-1-7-5-7-8"
       inkscape:connector-curvature="0" />
    <path
       style="opacity:1;vector-effect:none;fill:#000000;fill-opacity:0.10196078;stroke:none;stroke-width:0.45393923;stroke-linecap:butt;stroke-linejoin:miter;stroke-miterlimit:4;stroke-dasharray:none;stroke-dashoffset:0;stroke-opacity:1"
       d="m 14.847656,12.207031 c -0.994571,0 -1.794922,0.805309 -1.794922,1.806641 v 7.68164 c 0,1.001332 0.800351,1.808594 1.794922,1.808594 h 7.63086 c 0.99457,0 1.794921,-0.807262 1.794921,-1.808594 v -7.68164 c 0,-1.001332 -0.800351,-1.806641 -1.794921,-1.806641 z m 0.416016,1.06836 h 6.80078 c 0.8864,0 1.599609,0.713209 1.599609,1.599609 v 6.798828 c 1e-6,0.8864 -0.713209,1.601563 -1.599609,1.601563 h -6.80078 c -0.8864,0 -1.59961,-0.715163 -1.59961,-1.601563 V 14.875 c 0,-0.8864 0.71321,-1.599609 1.59961,-1.599609 z"
       id="rect4635-2-3-2-2-5-91-8-3"
       inkscape:connector-curvature="0" />
    <path
       style="opacity:1;vector-effect:none;fill:#060606;fill-opacity:0.49803922;stroke:none;stroke-width:0.41273755;stroke-linecap:butt;stroke-linejoin:miter;stroke-miterlimit:4;stroke-dasharray:none;stroke-dashoffset:0;stroke-opacity:1"
       d="m 15.26396,23.275543 c -0.8864,1e-6 -1.599609,-0.715162 -1.599609,-1.601562 v -0.478516 c 0,0.8864 0.713209,1.59961 1.599609,1.59961 h 6.798828 c 0.8864,0 1.601562,-0.71321 1.601562,-1.59961 v 0.478516 c 0,0.8864 -0.715162,1.601563 -1.601562,1.601562 z m -1.599609,-8.40039 v -0.402344 c 0,-0.928832 0.713209,-1.677735 1.599609,-1.677735 h 6.798828 c 0.8864,0 1.601562,0.748903 1.601562,1.677735 v 0.402344 c 0,-0.8864 -0.715162,-1.599611 -1.601562,-1.599611 H 15.26396 c -0.8864,0 -1.599609,0.713211 -1.599609,1.599611 z"
       id="rect4635-2-2-8-1-7-5-5-1"
       inkscape:connector-curvature="0" />
    <path
       style="opacity:1;vector-effect:none;fill:#000000;fill-opacity:0.10196078;stroke:none;stroke-width:0.45393923;stroke-linecap:butt;stroke-linejoin:miter;stroke-miterlimit:4;stroke-dasharray:none;stroke-dashoffset:0;stroke-opacity:1"
       d="m 14.847656,32.207029 c -0.994571,0 -1.794922,0.805309 -1.794922,1.806641 v 7.68164 c 0,1.001332 0.800351,1.808594 1.794922,1.808594 h 7.63086 c 0.99457,0 1.794921,-0.807262 1.794921,-1.808594 v -7.68164 c 0,-1.001332 -0.800351,-1.806641 -1.794921,-1.806641 z m 0.416016,1.06836 h 6.80078 c 0.8864,0 1.599609,0.713209 1.599609,1.599609 v 6.798828 c 1e-6,0.8864 -0.713209,1.601563 -1.599609,1.601563 h -6.80078 c -0.8864,0 -1.59961,-0.715163 -1.59961,-1.601563 v -6.798828 c 0,-0.8864 0.71321,-1.599609 1.59961,-1.599609 z"
       id="rect4635-2-3-2-2-5-91-9-89"
       inkscape:connector-curvature="0" />
    <path
       style="opacity:1;vector-effect:none;fill:#060606;fill-opacity:0.49803922;stroke:none;stroke-width:0.41273755;stroke-linecap:butt;stroke-linejoin:miter;stroke-miterlimit:4;stroke-dasharray:none;stroke-dashoffset:0;stroke-opacity:1"
       d="m 15.26396,43.275541 c -0.8864,1e-6 -1.599609,-0.715162 -1.599609,-1.601562 v -0.478516 c 0,0.8864 0.713209,1.59961 1.599609,1.59961 h 6.798828 c 0.8864,0 1.601562,-0.71321 1.601562,-1.59961 v 0.478516 c 0,0.8864 -0.715162,1.601563 -1.601562,1.601562 z m -1.599609,-8.40039 v -0.402344 c 0,-0.928832 0.713209,-1.677735 1.599609,-1.677735 h 6.798828 c 0.8864,0 1.601562,0.748903 1.601562,1.677735 v 0.402344 c 0,-0.8864 -0.715162,-1.599611 -1.601562,-1.599611 H 15.26396 c -0.8864,0 -1.599609,0.713211 -1.599609,1.599611 z"
       id="rect4635-2-2-8-1-7-5-7-6"
       inkscape:connector-curvature="0" />
  </g>
</svg>
