<svg width="16" height="16" version="1.1" xmlns="http://www.w3.org/2000/svg">
	<path fill="#bebebe" d="M 1 1 L 1 13 C 2.4857201 12.926009 3.9153335 12.649452 5.2421875 12.175781 L 5.1660156 12.123047 L 4.7207031 11.755859 L 5.3574219 10.984375 L 5.7695312 11.324219 L 6.0957031 11.5 L 5.859375 11.931641 C 8.3988066 10.873605 10.498554 9.0281686 11.753906 6.3125 L 11.642578 6.3730469 L 11.318359 5.7753906 L 11.175781 5.6015625 L 11.947266 4.9648438 L 12.117188 5.171875 L 12.171875 5.2519531 L 12.177734 5.2617188 C 12.625138 4.0017101 12.914575 2.5876441 13 1 L 1 1 z M 14 1 C 13.901104 3.2919661 13.37696 5.3069447 12.537109 7.0371094 L 12.878906 6.9296875 L 12.886719 6.9511719 L 12.90625 7.0488281 L 12.998047 7.9550781 L 12.998047 8.0566406 L 12.966797 8.3554688 L 11.972656 8.2539062 L 11.992188 8.0449219 C 10.9266 9.8169862 9.4896692 11.224074 7.7871094 12.222656 L 7.7089844 12.978516 L 7.0429688 12.912109 L 6.9453125 12.892578 L 6.6601562 12.804688 C 4.9502759 13.58222 3.0357654 14 1 14 L 1 15 L 15 15 L 15 1 L 14 1 z M 8.1757812 3.0214844 L 8.9570312 3.0996094 L 9.0546875 3.1191406 L 9.2597656 3.1835938 L 8.9628906 4.1386719 L 8.8105469 4.0917969 L 8.0742188 4.015625 L 8.1757812 3.0214844 z M 7.0800781 3.0957031 L 7.1484375 3.7695312 L 7.2421875 4.0742188 L 6.4394531 4.3242188 L 6.4179688 4.3359375 L 6.4160156 4.3320312 L 6.3964844 4.3378906 L 6.3671875 4.2402344 L 5.9414062 3.4570312 L 6.0097656 3.4199219 L 6.0996094 3.3828125 L 6.9453125 3.1191406 L 7.0429688 3.0996094 L 7.0800781 3.0957031 z M 10.279297 3.578125 L 10.753906 3.8339844 L 10.833984 3.8886719 L 11.189453 4.1816406 L 10.552734 4.953125 L 10.230469 4.6875 L 9.8027344 4.4570312 L 10.279297 3.578125 z M 5.0039062 4.0214844 L 5.640625 4.7929688 L 5.1738281 5.1796875 L 4.984375 5.4082031 L 4.2128906 4.7714844 L 4.4316406 4.5058594 L 4.5 4.4375 L 5.0039062 4.0214844 z M 3.5996094 5.6757812 L 4.4785156 6.1523438 L 4.3183594 6.4453125 L 4.1503906 6.9882812 L 3.1953125 6.6914062 L 3.3769531 6.1054688 L 3.4140625 6.015625 L 3.5996094 5.6757812 z M 3.0214844 7.7734375 L 4.015625 7.8730469 L 4.0039062 8.0039062 L 4.0800781 8.7675781 L 3.0839844 8.8691406 L 3.0019531 8.0566406 L 3.0019531 7.9550781 L 3.0214844 7.7734375 z M 11.816406 9.1347656 L 12.771484 9.4316406 L 12.623047 9.90625 L 12.585938 9.9960938 L 12.345703 10.439453 L 11.466797 9.9628906 L 11.681641 9.5683594 L 11.816406 9.1347656 z M 4.3027344 9.5371094 L 4.6816406 10.236328 L 4.75 10.320312 L 3.9785156 10.957031 L 3.8828125 10.839844 L 3.828125 10.759766 L 3.4238281 10.013672 L 4.3027344 9.5371094 z M 10.941406 10.693359 L 11.712891 11.330078 L 11.568359 11.505859 L 11.5 11.574219 L 10.90625 12.064453 L 10.269531 11.292969 L 10.826172 10.833984 L 10.941406 10.693359 z M 9.5664062 11.685547 L 9.8632812 12.640625 L 9.0546875 12.892578 L 8.9570312 12.912109 L 8.8046875 12.927734 L 8.7050781 11.931641 L 8.8125 11.919922 L 9.5664062 11.685547 z"/>
</svg>
