<svg width="16" height="16" version="1.1" xmlns="http://www.w3.org/2000/svg">
	<path fill="#bebebe" d="M 8 1 C 7.5595788 1 7.1309669 1.046844 6.7128906 1.125 L 6.8066406 2.0527344 L 6.8261719 2.1152344 C 7.2058096 2.0402394 7.5979882 2 8 2 C 8.048091 2 8.094761 2.0066925 8.1425781 2.0078125 L 8.2441406 1.0136719 C 8.1624066 1.0108319 8.0824134 1 8 1 z M 9.7617188 1.2324219 L 9.4667969 2.1875 C 9.9060605 2.2976229 10.326152 2.4535524 10.720703 2.6542969 L 11.185547 1.7949219 C 10.734242 1.562175 10.263489 1.3632015 9.7617188 1.2324219 z M 11.185547 1.7949219 C 11.190747 1.7975919 11.196002 1.8000544 11.201172 1.8027344 C 11.20053 1.7980044 11.195312 1.7938745 11.195312 1.7890625 C 11.195312 1.7876525 11.197166 1.7865663 11.197266 1.7851562 L 11.191406 1.7832031 L 11.185547 1.7949219 z M 5.1230469 1.625 C 4.6538734 1.8375723 4.2140004 2.1019952 3.8066406 2.4082031 L 4.4375 3.1777344 C 4.7965236 2.9123467 5.1832886 2.6827957 5.5976562 2.5019531 L 5.1230469 1.625 z M 12.455078 2.6210938 C 12.452378 2.6227637 12.448113 2.6234 12.445312 2.625 C 12.450613 2.62942 12.455608 2.6342299 12.460938 2.6386719 L 12.466797 2.6308594 L 12.455078 2.6210938 z M 12.460938 2.6386719 L 11.84375 3.390625 C 12.188208 3.677982 12.495159 4.0063471 12.767578 4.3632812 L 13.525391 3.734375 C 13.212229 3.3296713 12.853632 2.9658037 12.460938 2.6386719 z M 13.525391 3.734375 C 13.538991 3.751948 13.554919 3.7674473 13.568359 3.7851562 C 13.568359 3.7851562 13.570312 3.7832031 13.570312 3.7832031 L 13.529297 3.7324219 L 13.525391 3.734375 z M 8 3 C 5.2427857 3 3 5.242786 3 8 C 3 10.757214 5.2427857 13 8 13 C 10.757214 13 13 10.757214 13 8 C 13 5.242786 10.757215 3 8 3 z M 2.7050781 3.4492188 L 2.6953125 3.4609375 L 2.6992188 3.4648438 C 2.7019388 3.4616738 2.7043112 3.4582481 2.7070312 3.4550781 C 2.7056913 3.4535581 2.7063814 3.4507788 2.7050781 3.4492188 z M 2.6992188 3.4648438 C 2.366319 3.8531302 2.0821849 4.2797375 1.8398438 4.734375 L 2.6933594 5.1972656 C 2.9043668 4.7976574 3.1608819 4.4274243 3.453125 4.0878906 L 2.6992188 3.4648438 z M 1.8398438 4.734375 L 1.8378906 4.7324219 L 1.8320312 4.7421875 C 1.8329496 4.7428878 1.8350275 4.7414784 1.8359375 4.7421875 C 1.8373075 4.7396175 1.8384738 4.736945 1.8398438 4.734375 z M 8 4.0351562 C 10.193308 4.0351562 11.964844 5.806693 11.964844 8 C 11.964844 10.193308 10.193306 11.964844 8 11.964844 C 5.806693 11.964844 4.0351562 10.193308 4.0351562 8 C 4.0351562 5.806693 5.8066933 4.0351563 8 4.0351562 z M 14.322266 5.0195312 C 14.316766 5.0216413 14.312261 5.0254037 14.306641 5.0273438 C 14.309741 5.0339338 14.313206 5.040275 14.316406 5.046875 L 14.332031 5.0390625 L 14.322266 5.0195312 z M 14.316406 5.046875 L 13.458984 5.5175781 C 13.638503 5.9126775 13.782165 6.3280032 13.873047 6.7636719 L 14.017578 6.75 L 14.833984 6.4960938 C 14.721781 5.9861446 14.534429 5.5081706 14.316406 5.046875 z M 1.2597656 6.1425781 C 1.122764 6.6389834 1.0410506 7.1575669 1.0175781 7.6914062 C 1.0200481 7.6919996 1.0229406 7.6907802 1.0253906 7.6914062 L 1.0273438 7.6816406 L 2.0117188 7.78125 C 2.0281638 7.3232592 2.0939769 6.8790813 2.2070312 6.453125 L 1.2714844 6.1601562 L 1.2753906 6.1464844 C 1.2699206 6.1461058 1.2651826 6.1431381 1.2597656 6.1425781 z M 13.980469 8.4003906 C 13.950499 8.8561224 13.873717 9.2986811 13.748047 9.7207031 L 14.683594 10.013672 L 14.679688 10.027344 C 14.683587 10.027457 14.685553 10.03105 14.689453 10.03125 C 14.841404 9.5322537 14.934465 9.0097987 14.970703 8.4707031 C 14.967203 8.4697241 14.964338 8.4679169 14.960938 8.4667969 L 14.957031 8.5 L 13.980469 8.4003906 z M 2.1074219 9.1210938 L 1.1152344 9.2226562 C 1.2144994 9.7825847 1.3772907 10.320381 1.6015625 10.826172 L 2.4765625 10.349609 C 2.3110198 9.9598781 2.1878751 9.5482336 2.1074219 9.1210938 z M 13.21875 10.958984 C 12.996412 11.351065 12.729514 11.712546 12.427734 12.042969 L 13.193359 12.677734 C 13.536052 12.297633 13.822784 11.871842 14.076172 11.423828 L 13.21875 10.958984 z M 14.076172 11.423828 L 14.085938 11.429688 L 14.132812 11.341797 C 14.130712 11.338997 14.130906 11.335031 14.128906 11.332031 C 14.111986 11.363031 14.093532 11.393118 14.076172 11.423828 z M 3.1425781 11.515625 L 2.375 12.150391 C 2.679714 12.562345 3.0262832 12.939416 3.4121094 13.275391 L 4.0429688 12.505859 C 3.7068267 12.210561 3.4055628 11.878766 3.1425781 11.515625 z M 11.421875 12.927734 C 11.074165 13.169322 10.700896 13.376495 10.304688 13.541016 L 10.599609 14.494141 C 11.118606 14.285666 11.605567 14.015921 12.054688 13.695312 L 11.421875 12.927734 z M 5.1386719 13.277344 L 4.6640625 14.152344 C 5.1099621 14.395087 5.586463 14.586618 6.0839844 14.728516 L 6.3808594 13.773438 C 5.945398 13.652007 5.527874 13.488324 5.1386719 13.277344 z M 9.0253906 13.90625 C 8.6916713 13.96357 8.3503595 14 8 14 C 7.8972479 14 7.7967792 13.989455 7.6953125 13.984375 L 7.59375 14.978516 C 7.7289384 14.986316 7.8628857 15 8 15 C 8.3839769 15 8.7576574 14.960151 9.125 14.900391 L 9.0253906 13.90625 z "/>
</svg>
