<svg width="16" height="16" version="1.1" xmlns="http://www.w3.org/2000/svg">
	<path fill="#bebebe"  d="m 8,0 -3.5,2.8730469 h 2.5 v 0.2734375 c -1.8827484,0.4464925 -3.3596925,1.9491907 -3.7480469,3.8535156 h -3.2519531 v 2 h 3.2519531 c 0.4648037,2.279199 2.4838868,4 4.8984375,4 2.7572144,0 5.0000004,-2.242786 5.0000004,-5 0,-2.4668094 -1.797686,-4.5163447 -4.150391,-4.921875 v -0.2050781 h 2.5 z m 1,4.1308594 c 1.781999,0.3890688 3.115234,1.9686956 3.115234,3.8691406 0,2.193308 -1.771537,3.964844 -3.9648434,3.964844 -1.8456623,0 -3.3782276,-1.260228 -3.8222656,-2.964844 h 2.3945312 c 1.5505,-0.01 2.2773438,-1.2165781 2.2773438,-2.7675781 z m -2,0.091797 v 0.8027344 c -0.1535787,1.7858585 -0.3464719,1.974706 -2.2011719,1.9746094 h -0.4707031 c 0.3471111,-1.3325236 1.3609772,-2.3791889 2.671875,-2.7773438 z"/>
</svg>
