<svg width="16" height="16" version="1.1" xmlns="http://www.w3.org/2000/svg">
	<path fill="#bebebe"  d="M 7 0 L 7 3.1015625 L 6.9453125 3.1132812 L 6.0996094 3.3769531 L 6.0097656 3.4140625 L 5.9414062 3.4511719 L 6.3671875 4.234375 L 6.3964844 4.3320312 L 6.4160156 4.3261719 L 6.4179688 4.3300781 L 6.4394531 4.3183594 L 7 4.1445312 L 7 4.7988281 C 7.0000966 6.6535281 6.8112491 6.8464213 5.0253906 7 L 2.8730469 7 L 2.8730469 4.5 L 0 8 L 2.8730469 11.5 L 2.8730469 9 L 6.2324219 9 C 7.7834219 9 8.99 8.2731562 9 6.7226562 L 9 4.0136719 L 9.2597656 3.1777344 L 9.0546875 3.1132812 L 9 3.1015625 L 9 0 L 7 0 z M 10.279297 3.5722656 L 9.8027344 4.4511719 L 10.230469 4.6816406 L 10.552734 4.9472656 L 11.189453 4.1757812 L 10.833984 3.8828125 L 10.753906 3.828125 L 10.279297 3.5722656 z M 5.0039062 4.015625 L 4.5 4.4316406 L 4.4316406 4.5 L 4.2128906 4.765625 L 4.984375 5.4023438 L 5.1738281 5.1738281 L 5.640625 4.7871094 L 5.0039062 4.015625 z M 11.947266 4.9589844 L 11.175781 5.5957031 L 11.318359 5.7695312 L 11.642578 6.3671875 L 12.521484 5.8886719 L 12.171875 5.2460938 L 12.117188 5.1660156 L 11.947266 4.9589844 z M 3.5996094 5.6699219 L 3.4140625 6.0097656 L 3.3769531 6.0996094 L 3.1953125 6.6855469 L 4.1503906 6.9824219 L 4.3183594 6.4394531 L 4.4785156 6.1464844 L 3.5996094 5.6699219 z M 12.878906 6.9238281 L 12.296875 7.1054688 L 11.910156 7.1425781 L 11.996094 8 L 11.972656 8.2480469 L 12.966797 8.3496094 L 12.998047 8.0507812 L 12.998047 7.9492188 L 12.90625 7.0429688 L 12.886719 6.9453125 L 12.878906 6.9238281 z M 11.816406 9.1289062 L 11.681641 9.5625 L 11.466797 9.9570312 L 12.345703 10.433594 L 12.585938 9.9902344 L 12.623047 9.9003906 L 12.771484 9.4257812 L 11.816406 9.1289062 z M 4.3027344 9.53125 L 3.4238281 10.007812 L 3.828125 10.753906 L 3.8828125 10.833984 L 3.9785156 10.951172 L 4.75 10.314453 L 4.6816406 10.230469 L 4.3027344 9.53125 z M 10.941406 10.6875 L 10.826172 10.828125 L 10.269531 11.287109 L 10.90625 12.058594 L 11.5 11.568359 L 11.568359 11.5 L 11.712891 11.324219 L 10.941406 10.6875 z M 5.3574219 10.978516 L 4.7207031 11.75 L 5.1660156 12.117188 L 5.2460938 12.171875 L 5.6171875 12.373047 L 6.0957031 11.494141 L 5.7695312 11.318359 L 5.3574219 10.978516 z M 9.5664062 11.679688 L 8.8125 11.914062 L 8.7050781 11.925781 L 8.8046875 12.921875 L 8.9570312 12.90625 L 9.0546875 12.886719 L 9.8632812 12.634766 L 9.5664062 11.679688 z M 6.9257812 11.833984 L 6.6289062 12.789062 L 6.9453125 12.886719 L 7.0429688 12.90625 L 7.7089844 12.972656 L 7.8105469 11.978516 L 7.1875 11.914062 L 6.9257812 11.833984 z"/>
</svg>
