<svg width="16" height="16" version="1.1" xmlns="http://www.w3.org/2000/svg">
	<path fill="#bebebe" d="m 3.4735,4.421875 -2.4375,7 h 1.7188 l 0.40625,-1.25 h 2.6562 l 0.4375,1.25 h 1.7188 l -2.4688,-7 z m 5.5312,0 v 7 h 2.0216 v -0.71875 c 0.24291,0.3081 0.33063,0.50849 0.62606,0.65625 0.29543,0.14462 0.61594,0.21875 1,0.21875 0.67948,-10e-7 1.2509,-0.2344 1.6875,-0.75 0.43657,-0.51874 0.65624,-1.1857 0.65625,-2 -6e-6,-0.81427 -0.21968,-1.4844 -0.65625,-2 -0.43658,-0.51874 -1.008,-0.78124 -1.6875,-0.78125 -0.38406,5.4e-6 -0.70457,0.070992 -1,0.21875 -0.29543,0.14462 -0.38315,0.3794 -0.62606,0.6875 v -2.5312 z m -4.5,1.6562 0.90625,2.7812 h -1.8125 z m 7.4914,1.1875 c 0.37749,4.2e-6 0.67804,0.14217 0.875,0.40625 0.20023,0.26409 0.28124,0.65323 0.28125,1.1562 -5e-6,0.50303 -0.08102,0.89216 -0.28125,1.1562 -0.19696,0.26409 -0.49751,0.375 -0.875,0.375 -0.3775,10e-7 -0.48504,-0.11091 -0.68856,-0.375 -0.20023,-0.26723 -0.28125,-0.65637 -0.28125,-1.1562 -3e-6,-0.49988 0.08101,-0.89216 0.28125,-1.1562 0.20352,-0.26723 0.31106,-0.40625 0.68856,-0.40625 z"/>
</svg>
