<svg width="16" height="16" version="1.1" xmlns="http://www.w3.org/2000/svg">
	<path fill="#bebebe" d="m 11.59418,3.457445 -7,-2.4375 v 1.7188 l 1.25,0.40625 v 2.6562 l -1.25,0.4375 v 1.7188 l 7,-2.4688 z m 0,5.5312 h -7 v 2.0216 h 0.71875 c -0.3081,0.24291 -0.50849,0.33063 -0.65625,0.62606 -0.14462,0.29543 -0.21875,0.61594 -0.21875,1 1e-6,0.67948 0.2344,1.2509 0.75,1.6875 0.51874,0.43657 1.1857,0.65624 2,0.65625 0.81427,-6e-6 1.4844,-0.21968 2,-0.65625 0.51874,-0.43658 0.78124,-1.008 0.78125,-1.6875 -5.4e-6,-0.38406 -0.070992,-0.70457 -0.21875,-1 -0.14462,-0.29543 -0.3794,-0.38315 -0.6875,-0.62606 h 2.5312 z m -1.6562,-4.5 -2.7812,0.90625 v -1.8125 z m -1.1875,7.4914 c -4.2e-6,0.37749 -0.14217,0.67804 -0.40625,0.875 -0.26409,0.20023 -0.65323,0.28124 -1.1562,0.28125 -0.50303,-5e-6 -0.89216,-0.08102 -1.1562,-0.28125 -0.26409,-0.19696 -0.375,-0.49751 -0.375,-0.875 -1e-6,-0.3775 0.11091,-0.48504 0.375,-0.68856 0.26723,-0.20023 0.65637,-0.28125 1.1562,-0.28125 0.49988,-3e-6 0.89216,0.08101 1.1562,0.28125 0.26723,0.20352 0.40625,0.31106 0.40625,0.68856 z"/>
</svg>
