<?xml version="1.0" encoding="UTF-8" standalone="no"?>
<!-- Created with Inkscape (http://www.inkscape.org/) -->

<svg
   xmlns:dc="http://purl.org/dc/elements/1.1/"
   xmlns:cc="http://creativecommons.org/ns#"
   xmlns:rdf="http://www.w3.org/1999/02/22-rdf-syntax-ns#"
   xmlns:svg="http://www.w3.org/2000/svg"
   xmlns="http://www.w3.org/2000/svg"
   xmlns:xlink="http://www.w3.org/1999/xlink"
   xmlns:sodipodi="http://sodipodi.sourceforge.net/DTD/sodipodi-0.dtd"
   xmlns:inkscape="http://www.inkscape.org/namespaces/inkscape"
   version="1.0"
   width="96"
   height="96"
   id="svg2408"
   sodipodi:docname="googlekeep.svg"
   inkscape:version="0.92.2 2405546, 2018-03-11"
   inkscape:export-filename="/home/drew/builds/faenzx-icon-theme/src/Faenzx/apps/96/googlekeep96.png"
   inkscape:export-xdpi="96.085197"
   inkscape:export-ydpi="96.085197">
  <sodipodi:namedview
     pagecolor="#ffffff"
     bordercolor="#666666"
     borderopacity="1"
     objecttolerance="10"
     gridtolerance="10"
     guidetolerance="10"
     inkscape:pageopacity="0"
     inkscape:pageshadow="2"
     inkscape:window-width="1920"
     inkscape:window-height="1024"
     id="namedview69"
     showgrid="false"
     inkscape:zoom="5.6568543"
     inkscape:cx="49.600569"
     inkscape:cy="34.326227"
     inkscape:window-x="0"
     inkscape:window-y="0"
     inkscape:window-maximized="1"
     inkscape:current-layer="svg2408" />
  <defs
     id="defs2410">
    <linearGradient
       id="linearGradient3700-6">
      <stop
         offset="0"
         style="stop-color:#fada80;stop-opacity:1"
         id="stop4729" />
      <stop
         offset="1"
         style="stop-color:#fada80;stop-opacity:1"
         id="stop4731" />
    </linearGradient>
    <linearGradient
       id="linearGradient3994">
      <stop
         id="stop3996"
         style="stop-color:#ffffff;stop-opacity:1"
         offset="0" />
      <stop
         id="stop3998"
         style="stop-color:#ffffff;stop-opacity:0"
         offset="1" />
    </linearGradient>
    <linearGradient
       id="linearGradient3881">
      <stop
         id="stop3883"
         style="stop-color:#000000;stop-opacity:1"
         offset="0" />
      <stop
         id="stop3885"
         style="stop-color:#000000;stop-opacity:0"
         offset="1" />
    </linearGradient>
    <linearGradient
       x1="45.447727"
       y1="92.539597"
       x2="45.447727"
       y2="7.0165396"
       id="ButtonShadow"
       gradientUnits="userSpaceOnUse"
       gradientTransform="scale(1.0058652,0.994169)">
      <stop
         id="stop3750"
         style="stop-color:#000000;stop-opacity:1"
         offset="0" />
      <stop
         id="stop3752"
         style="stop-color:#000000;stop-opacity:0.58823532"
         offset="1" />
    </linearGradient>
    <linearGradient
       id="linearGradient3737">
      <stop
         id="stop3739"
         style="stop-color:#ffffff;stop-opacity:1"
         offset="0" />
      <stop
         id="stop3741"
         style="stop-color:#ffffff;stop-opacity:0"
         offset="1" />
    </linearGradient>
    <linearGradient
       id="linearGradient3700">
      <stop
         id="stop3702"
         style="stop-color:#d29c00;stop-opacity:1"
         offset="0" />
      <stop
         id="stop3704"
         style="stop-color:#ffc00f;stop-opacity:1"
         offset="1" />
    </linearGradient>
    <filter
       color-interpolation-filters="sRGB"
       id="filter3174">
      <feGaussianBlur
         id="feGaussianBlur3176"
         stdDeviation="1.71" />
    </filter>
    <linearGradient
       x1="36.357143"
       y1="6"
       x2="36.357143"
       y2="63.893143"
       id="linearGradient3188"
       xlink:href="#linearGradient3737"
       gradientUnits="userSpaceOnUse" />
    <filter
       x="-0.192"
       y="-0.192"
       width="1.3839999"
       height="1.3839999"
       color-interpolation-filters="sRGB"
       id="filter3794">
      <feGaussianBlur
         id="feGaussianBlur3796"
         stdDeviation="5.28" />
    </filter>
    <linearGradient
       x1="48"
       y1="20.220806"
       x2="48"
       y2="138.66119"
       id="linearGradient3613"
       xlink:href="#linearGradient3737"
       gradientUnits="userSpaceOnUse" />
    <radialGradient
       cx="48"
       cy="90.171875"
       r="42"
       fx="48"
       fy="90.171875"
       id="radialGradient3619"
       xlink:href="#linearGradient3737"
       gradientUnits="userSpaceOnUse"
       gradientTransform="matrix(1.1573129,0,0,0.99590774,-7.5510206,0.19713193)" />
    <clipPath
       id="clipPath3613">
      <rect
         width="84"
         height="84"
         rx="6"
         ry="6"
         x="6"
         y="6"
         id="rect3615"
         style="fill:#ffffff;fill-opacity:1;fill-rule:nonzero;stroke:none" />
    </clipPath>
    <linearGradient
       x1="48"
       y1="90"
       x2="48"
       y2="5.9877172"
       id="linearGradient3617"
       xlink:href="#linearGradient3700"
       gradientUnits="userSpaceOnUse"
       gradientTransform="translate(0,20)" />
    <linearGradient
       x1="45.447727"
       y1="92.539597"
       x2="45.447727"
       y2="7.0165396"
       id="ButtonShadow-0"
       gradientUnits="userSpaceOnUse"
       gradientTransform="matrix(1.0058652,0,0,0.994169,100,0)">
      <stop
         id="stop3750-8"
         style="stop-color:#000000;stop-opacity:1"
         offset="0" />
      <stop
         id="stop3752-5"
         style="stop-color:#000000;stop-opacity:0.58823532"
         offset="1" />
    </linearGradient>
    <linearGradient
       x1="32.251034"
       y1="6.1317081"
       x2="32.251034"
       y2="90.238609"
       id="linearGradient3780"
       xlink:href="#ButtonShadow-0"
       gradientUnits="userSpaceOnUse"
       gradientTransform="matrix(1.0238095,0,0,1.0119048,-1.1428571,-98.071429)" />
    <linearGradient
       x1="32.251034"
       y1="6.1317081"
       x2="32.251034"
       y2="90.238609"
       id="linearGradient3772"
       xlink:href="#ButtonShadow-0"
       gradientUnits="userSpaceOnUse"
       gradientTransform="matrix(1.0238095,0,0,1.0119048,-1.1428571,-98.071429)" />
    <linearGradient
       x1="32.251034"
       y1="6.1317081"
       x2="32.251034"
       y2="90.238609"
       id="linearGradient3725"
       xlink:href="#ButtonShadow-0"
       gradientUnits="userSpaceOnUse"
       gradientTransform="matrix(1.0238095,0,0,1.0119048,-1.1428571,-98.071429)" />
    <linearGradient
       x1="32.251034"
       y1="6.1317081"
       x2="32.251034"
       y2="90.238609"
       id="linearGradient3721"
       xlink:href="#ButtonShadow-0"
       gradientUnits="userSpaceOnUse"
       gradientTransform="translate(0,-97)" />
    <linearGradient
       x1="32.251034"
       y1="6.1317081"
       x2="32.251034"
       y2="90.238609"
       id="linearGradient3026"
       xlink:href="#ButtonShadow-0"
       gradientUnits="userSpaceOnUse"
       gradientTransform="matrix(1.0238095,0,0,1.0119048,-1.1428571,-98.071429)" />
    <linearGradient
       x1="31"
       y1="16"
       x2="31"
       y2="18"
       id="linearGradient3887"
       xlink:href="#linearGradient3881"
       gradientUnits="userSpaceOnUse"
       gradientTransform="matrix(1,0,0,1.5,0.71909164,-3.1101768)" />
    <linearGradient
       x1="36.357143"
       y1="6"
       x2="36.357143"
       y2="63.893143"
       id="linearGradient3902"
       xlink:href="#linearGradient3737"
       gradientUnits="userSpaceOnUse" />
    <clipPath
       id="clipPath3981">
      <rect
         width="96"
         height="82"
         x="0"
         y="34"
         id="rect3983"
         style="opacity:0.5;color:#000000;fill:#ff00ff;fill-opacity:1;fill-rule:nonzero;stroke:none;stroke-width:2;marker:none;visibility:visible;display:inline;overflow:visible;enable-background:accumulate" />
    </clipPath>
    <linearGradient
       x1="40"
       y1="6"
       x2="40"
       y2="14"
       id="linearGradient4000"
       xlink:href="#linearGradient3994"
       gradientUnits="userSpaceOnUse" />
    <linearGradient
       x1="48"
       y1="90"
       x2="48"
       y2="5.9877172"
       id="linearGradient3617-3"
       xlink:href="#linearGradient3700-6-8"
       gradientUnits="userSpaceOnUse" />
    <linearGradient
       id="linearGradient3700-6-8">
      <stop
         id="stop3702-7"
         style="stop-color:#d29900;stop-opacity:1"
         offset="0" />
      <stop
         id="stop3704-5"
         style="stop-color:#ffbe0f;stop-opacity:1"
         offset="1" />
    </linearGradient>
    <linearGradient
       x1="36.357143"
       y1="6"
       x2="36.357143"
       y2="63.893143"
       id="linearGradient3188-3"
       xlink:href="#linearGradient3994"
       gradientUnits="userSpaceOnUse" />
    <radialGradient
       cx="48"
       cy="90.171875"
       r="42"
       fx="48"
       fy="90.171875"
       id="radialGradient3619-2"
       xlink:href="#linearGradient3994"
       gradientUnits="userSpaceOnUse"
       gradientTransform="matrix(1.1573129,0,0,0.99590774,-7.5510206,0.19713193)" />
    <radialGradient
       cx="64.144684"
       cy="-16.952808"
       r="60.306107"
       fx="64.144684"
       fy="-16.952808"
       id="radialGradient4004"
       xlink:href="#linearGradient3994"
       gradientUnits="userSpaceOnUse" />
    <radialGradient
       cx="48"
       cy="90.171875"
       r="42"
       fx="48"
       fy="90.171875"
       id="radialGradient3619-2-0"
       xlink:href="#linearGradient3994"
       gradientUnits="userSpaceOnUse"
       gradientTransform="matrix(-1.1573129,0,0,-0.99590774,162.63677,155.48083)" />
    <radialGradient
       inkscape:collect="always"
       xlink:href="#linearGradient3994"
       id="radialGradient4699"
       gradientUnits="userSpaceOnUse"
       gradientTransform="matrix(1.1573129,0,0,0.99590774,-7.5510206,0.19713193)"
       cx="48"
       cy="90.171875"
       fx="48"
       fy="90.171875"
       r="42" />
    <radialGradient
       inkscape:collect="always"
       xlink:href="#linearGradient3994"
       id="radialGradient4702"
       gradientUnits="userSpaceOnUse"
       gradientTransform="matrix(1.1573129,0,0,0.99590774,-7.5510206,0.19713193)"
       cx="48"
       cy="90.171875"
       fx="48"
       fy="90.171875"
       r="42" />
    <linearGradient
       gradientTransform="matrix(1.0094718,0,0,1.0119673,5.3000836,1.4144643)"
       x1="48"
       y1="90"
       x2="48"
       y2="5.9877172"
       id="linearGradient3617-3-6"
       xlink:href="#linearGradient3700-6"
       gradientUnits="userSpaceOnUse" />
    <linearGradient
       gradientTransform="matrix(0.39702055,0,0,0.27805813,54.268146,64.974769)"
       x1="48"
       y1="90"
       x2="48"
       y2="5.9877172"
       id="linearGradient3617-3-7"
       xlink:href="#linearGradient3700-6"
       gradientUnits="userSpaceOnUse" />
    <linearGradient
       gradientTransform="matrix(0.28071248,0,0,0.38053739,64.735863,55.751636)"
       x1="48"
       y1="90"
       x2="48"
       y2="5.9877172"
       id="linearGradient3617-3-7-2"
       xlink:href="#linearGradient3700-6"
       gradientUnits="userSpaceOnUse" />
    <linearGradient
       gradientTransform="matrix(1.0094718,0,0,1.0119673,-0.8524582,-1.0771133)"
       x1="48"
       y1="90"
       x2="48"
       y2="5.9877172"
       id="linearGradient3617-3-6-9"
       xlink:href="#linearGradient3700-6"
       gradientUnits="userSpaceOnUse" />
    <radialGradient
       inkscape:collect="always"
       xlink:href="#linearGradient3994"
       id="radialGradient4702-1"
       gradientUnits="userSpaceOnUse"
       gradientTransform="matrix(1.1573129,0,0,0.99590774,-7.550935,0.197132)"
       cx="48"
       cy="90.171875"
       fx="48"
       fy="90.171875"
       r="42" />
    <linearGradient
       gradientTransform="matrix(-1.0094718,0,0,-1.0119673,157.60485,157.8219)"
       x1="48"
       y1="90"
       x2="48"
       y2="5.9877172"
       id="linearGradient3617-3-6-9-9"
       xlink:href="#linearGradient3700-6"
       gradientUnits="userSpaceOnUse" />
    <linearGradient
       gradientTransform="matrix(1.0094718,0,0,1.0119673,-0.852458,-1.0770606)"
       x1="48"
       y1="90"
       x2="48"
       y2="5.9877172"
       id="linearGradient3617-3-6-9-6"
       xlink:href="#linearGradient3700-6"
       gradientUnits="userSpaceOnUse" />
    <linearGradient
       gradientTransform="matrix(1.0094718,0,0,1.0119673,-0.852458,-1.077161)"
       x1="48"
       y1="90"
       x2="48"
       y2="5.9877172"
       id="linearGradient3617-3-6-9-3"
       xlink:href="#linearGradient3700-6"
       gradientUnits="userSpaceOnUse" />
    <linearGradient
       gradientTransform="matrix(1.0094718,0,0,1.0119673,-0.8524578,-1.0771613)"
       x1="48"
       y1="90"
       x2="48"
       y2="5.9877172"
       id="linearGradient3617-3-6-9-2"
       xlink:href="#linearGradient3700-6"
       gradientUnits="userSpaceOnUse" />
    <linearGradient
       gradientTransform="matrix(1.0094718,0,0,1.0119673,-0.8524585,-1.077065)"
       x1="48"
       y1="90"
       x2="48"
       y2="5.9877172"
       id="linearGradient3617-3-6-9-92"
       xlink:href="#linearGradient3700-6"
       gradientUnits="userSpaceOnUse" />
    <linearGradient
       gradientTransform="matrix(1.0094718,0,0,1.0119673,-0.8524584,-1.0771134)"
       x1="48"
       y1="90"
       x2="48"
       y2="5.9877172"
       id="linearGradient3617-3-6-9-95"
       xlink:href="#linearGradient3700-6"
       gradientUnits="userSpaceOnUse" />
  </defs>
  <metadata
     id="metadata2413">
    <rdf:RDF>
      <cc:Work
         rdf:about="">
        <dc:format>image/svg+xml</dc:format>
        <dc:type
           rdf:resource="http://purl.org/dc/dcmitype/StillImage" />
        <dc:title></dc:title>
      </cc:Work>
    </rdf:RDF>
  </metadata>
  <g
     id="layer2"
     style="display:none">
    <rect
       width="86"
       height="85"
       rx="6"
       ry="6"
       x="5"
       y="7"
       id="rect3745"
       style="opacity:0.9;fill:url(#ButtonShadow);fill-opacity:1;fill-rule:nonzero;stroke:none;filter:url(#filter3174)" />
  </g>
  <g
     id="layer3">
    <path
       d="m 12,-95.03125 c -5.5110903,0 -10.03125,4.52016 -10.03125,10.03125 v 71 c 0,5.5110902 4.5201598,10.03125 10.03125,10.03125 h 72 c 5.51109,0 10.03125,-4.5201597 10.03125,-10.03125 v -54.5 l -27.1875,-26.53125 z"
       transform="scale(1,-1)"
       id="path3786"
       style="display:inline;opacity:0.07999998;fill:url(#linearGradient3026);fill-opacity:1;fill-rule:nonzero;stroke:none"
       inkscape:connector-curvature="0"
       sodipodi:nodetypes="ssssssccs" />
    <path
       d="m 12,-94.03125 c -4.971633,0 -9.03125,4.059617 -9.03125,9.03125 v 71 c 0,4.9716329 4.0596171,9.03125 9.03125,9.03125 h 72 c 4.971633,0 9.03125,-4.059617 9.03125,-9.03125 V -67.892505 L 66.269164,-94.03125 Z"
       transform="scale(1,-1)"
       id="path3778"
       style="display:inline;opacity:0.1;fill:url(#linearGradient3780);fill-opacity:1;fill-rule:nonzero;stroke:none"
       inkscape:connector-curvature="0"
       sodipodi:nodetypes="ssssssccs" />
    <path
       d="m 12,-93 c -4.4091333,0 -8,3.590867 -8,8 v 71 c 0,4.4091333 3.5908667,8 8,8 h 72 c 4.409133,0 8,-3.5908667 8,-8 V -67.4 L 65.738834,-93 Z"
       transform="scale(1,-1)"
       id="path3770"
       style="display:inline;opacity:0.2;fill:url(#linearGradient3772);fill-opacity:1;fill-rule:nonzero;stroke:none"
       inkscape:connector-curvature="0"
       sodipodi:nodetypes="ssssssccs" />
    <path
       transform="scale(1,-1)"
       style="display:inline;opacity:0.3;fill:url(#linearGradient3725);fill-opacity:1;fill-rule:nonzero;stroke:none"
       d="M 12,-92 H 65.274795 L 91,-66.855513 V -14 c 0,3.878 -3.122,7 -7,7 H 12 c -3.878,0 -7,-3.122 -7,-7 v -71 c 0,-3.878 3.122,-7 7,-7 z"
       id="rect3723"
       inkscape:connector-curvature="0"
       sodipodi:nodetypes="sccssssss" />
    <path
       transform="scale(1,-1)"
       style="display:inline;opacity:0.45;fill:url(#linearGradient3721);fill-opacity:1;fill-rule:nonzero;stroke:none"
       d="M 12,-91 H 64.877047 L 90,-66.5 V -13 c 0,3.324 -2.676,6 -6,6 H 12 C 8.676,-7 6,-9.676 6,-13 v -72 c 0,-3.324 2.676,-6 6,-6 z"
       id="rect3716"
       inkscape:connector-curvature="0"
       sodipodi:nodetypes="sccssssss" />
  </g>
  <g
     id="layer1">
    <path
       d="M 12,6 C 8.676,6 6,8.676 6,12 v 2 68 2 c 0,0.334721 0.04135,0.6507 0.09375,0.96875 0.0487,0.295596 0.09704,0.596915 0.1875,0.875 0.00988,0.03038 0.020892,0.0636 0.03125,0.09375 0.098865,0.287771 0.2348802,0.547452 0.375,0.8125 0.1445918,0.273507 0.3156161,0.535615 0.5,0.78125 0.1843839,0.245635 0.3737765,0.473472 0.59375,0.6875 0.439947,0.428056 0.94291,0.814526 1.5,1.09375 0.278545,0.139612 0.5734731,0.246947 0.875,0.34375 -0.2562018,-0.100222 -0.4867109,-0.236272 -0.71875,-0.375 -0.00741,-0.0044 -0.023866,0.0045 -0.03125,0 -0.031933,-0.0193 -0.062293,-0.04251 -0.09375,-0.0625 -0.120395,-0.0767 -0.2310226,-0.163513 -0.34375,-0.25 -0.1061728,-0.0808 -0.2132809,-0.161112 -0.3125,-0.25 C 8.4783201,88.557317 8.3087904,88.373362 8.15625,88.1875 8.0486711,88.057245 7.9378561,87.922215 7.84375,87.78125 7.818661,87.74287 7.805304,87.69538 7.78125,87.65625 7.716487,87.553218 7.6510225,87.451733 7.59375,87.34375 7.4927417,87.149044 7.3880752,86.928049 7.3125,86.71875 7.30454,86.69694 7.288911,86.6782 7.28125,86.65625 7.2494249,86.5643 7.2454455,86.469419 7.21875,86.375 7.1884177,86.268382 7.1483606,86.171969 7.125,86.0625 7.0521214,85.720988 7,85.364295 7,85 V 83 15 13 C 7,10.218152 9.2181517,8 12,8 h 2 68 2 c 2.781848,0 5,2.218152 5,5 v 2 68 2 c 0,0.364295 -0.05212,0.720988 -0.125,1.0625 -0.04415,0.206893 -0.08838,0.397658 -0.15625,0.59375 -0.0077,0.02195 -0.0233,0.04069 -0.03125,0.0625 -0.06274,0.173739 -0.138383,0.367449 -0.21875,0.53125 -0.04158,0.0828 -0.07904,0.169954 -0.125,0.25 -0.0546,0.09721 -0.126774,0.18835 -0.1875,0.28125 -0.09411,0.140965 -0.204921,0.275995 -0.3125,0.40625 -0.143174,0.17445 -0.303141,0.346998 -0.46875,0.5 -0.01117,0.0102 -0.01998,0.02115 -0.03125,0.03125 -0.138386,0.125556 -0.285091,0.234436 -0.4375,0.34375 -0.102571,0.07315 -0.204318,0.153364 -0.3125,0.21875 -0.0074,0.0045 -0.02384,-0.0044 -0.03125,0 -0.232039,0.138728 -0.462548,0.274778 -0.71875,0.375 0.301527,-0.0968 0.596455,-0.204138 0.875,-0.34375 0.55709,-0.279224 1.060053,-0.665694 1.5,-1.09375 0.219973,-0.214028 0.409366,-0.441865 0.59375,-0.6875 0.184384,-0.245635 0.355408,-0.507743 0.5,-0.78125 0.14012,-0.265048 0.276135,-0.524729 0.375,-0.8125 0.01041,-0.03078 0.02133,-0.06274 0.03125,-0.09375 0.09046,-0.278085 0.1388,-0.579404 0.1875,-0.875 C 89.95865,84.6507 90,84.334721 90,84 V 82 14 12 C 90,8.676 87.324,6 84,6 Z"
       inkscape:connector-curvature="0"
       id="rect3728"
       style="opacity:0.15;fill:url(#linearGradient3188);fill-opacity:1;fill-rule:nonzero;stroke:none" />
    <path
       d="M 12,6 C 8.676,6 6,8.676 6,12 v 2 H 26 48 70 90 V 12 C 90,8.676 87.324,6 84,6 H 70 48 26 Z"
       inkscape:connector-curvature="0"
       id="path3985"
       style="opacity:0.3;fill:url(#linearGradient4000);fill-opacity:1;fill-rule:nonzero;stroke:none" />
    <g
       id="layer1-9"
       style="display:inline">
      <path
         style="fill:url(#linearGradient3617-3);fill-opacity:1;fill-rule:nonzero;stroke:none"
         d="m 12,6 h 72 c 3.324,0 6,2.676 6,6 l 10e-7,53.681108 L 65.086,89.999948 12,90 c -3.324,3e-6 -6,-2.676 -6,-6 V 12 C 6,8.676 8.676,6 12,6 Z"
         id="rect2419-1"
         inkscape:connector-curvature="0"
         sodipodi:nodetypes="sssccssss" />
      <path
         style="display:inline;fill:#000000;fill-opacity:0.06666667;fill-rule:nonzero;stroke:none;stroke-width:1.01071882"
         d="m 67.177201,63.681099 c -3.355472,-0.0095 -6.090902,2.70418 -6.090902,6.06796 -0.0373,5.606923 -0.0015,20.25094 -0.0015,20.25094 l 4.001153,-5.2e-5 24.914001,-24.318839 -1e-6,-2.000167 c 0,0 -15.32833,1.58e-4 -22.822751,1.58e-4 z"
         id="rect2419-1-1-6-8-1-7-2"
         inkscape:connector-curvature="0"
         sodipodi:nodetypes="ccccccc" />
      <path
         style="display:inline;fill:#000000;fill-opacity:0.14901961;fill-rule:nonzero;stroke:none;stroke-width:1.01071882"
         d="m 68.177201,64.681099 c -3.355472,-0.0095 -6.090902,2.70418 -6.090902,6.06796 -0.0373,5.606923 -0.0015,19.25094 -0.0015,19.25094 l 3.001153,-5.2e-5 24.914001,-24.318839 -1e-6,-1.000167 c 0,0 -14.32833,1.58e-4 -21.822751,1.58e-4 z"
         id="rect2419-1-1-6-8-1-7"
         inkscape:connector-curvature="0"
         sodipodi:nodetypes="ccccccc" />
      <path
         style="display:inline;fill:#000000;fill-opacity:0.29411765;fill-rule:nonzero;stroke:none;stroke-width:1.01071882"
         d="m 69.177201,65.681099 c -3.355472,-0.0095 -6.090902,2.70418 -6.090902,6.06796 -0.0373,5.606923 -0.0015,18.25094 -0.0015,18.25094 l 2.001153,-5.2e-5 24.914001,-24.318839 c -6.98246,-2.65e-4 -13.942188,-1.4e-5 -20.822752,-9e-6 z"
         id="rect2419-1-1-6-8-1"
         inkscape:connector-curvature="0"
         sodipodi:nodetypes="cccccc" />
      <path
         style="display:inline;fill:#000000;fill-opacity:0.47843137;fill-rule:nonzero;stroke:none;stroke-width:1.01071882"
         d="m 70.177177,65.681099 c -3.355472,-0.0095 -6.090902,2.70418 -6.090902,6.06796 C 64.048972,77.355983 64.084823,90 64.084823,90 l 1.001177,-5.2e-5 24.914001,-24.31884 c -6.794686,5.66e-4 -13.568352,-0.0055 -19.822824,-9e-6 z"
         id="rect2419-1-1-6-8"
         inkscape:connector-curvature="0"
         sodipodi:nodetypes="cccccc" />
      <path
         d="M 12,6 C 8.676,6 6,8.676 6,12 v 2 68 2 c 0,0.334721 0.04135,0.6507 0.09375,0.96875 0.0487,0.295596 0.09704,0.596915 0.1875,0.875 0.00988,0.03038 0.020892,0.0636 0.03125,0.09375 0.098865,0.287771 0.2348802,0.547452 0.375,0.8125 0.1445918,0.273507 0.3156161,0.535615 0.5,0.78125 0.1843839,0.245635 0.3737765,0.473472 0.59375,0.6875 0.439947,0.428056 0.94291,0.814526 1.5,1.09375 0.278545,0.139612 0.5734731,0.246947 0.875,0.34375 -0.2562018,-0.100222 -0.4867109,-0.236272 -0.71875,-0.375 -0.00741,-0.0044 -0.023866,0.0045 -0.03125,0 -0.031933,-0.0193 -0.062293,-0.04251 -0.09375,-0.0625 -0.120395,-0.0767 -0.2310226,-0.163513 -0.34375,-0.25 -0.1061728,-0.0808 -0.2132809,-0.161112 -0.3125,-0.25 C 8.4783201,88.557317 8.3087904,88.373362 8.15625,88.1875 8.0486711,88.057245 7.9378561,87.922215 7.84375,87.78125 7.818661,87.74287 7.805304,87.69538 7.78125,87.65625 7.716487,87.553218 7.6510225,87.451733 7.59375,87.34375 7.4927417,87.149044 7.3880752,86.928049 7.3125,86.71875 7.30454,86.69694 7.288911,86.6782 7.28125,86.65625 7.2494249,86.5643 7.2454455,86.469419 7.21875,86.375 7.1884177,86.268382 7.1483606,86.171969 7.125,86.0625 7.0521214,85.720988 7,85.364295 7,85 V 83 15 13 C 7,10.218152 9.2181517,8 12,8 h 2 68 2 c 2.781848,0 5,2.218152 5,5 v 2 68 2 c 0,0.364295 -0.05212,0.720988 -0.125,1.0625 -0.04415,0.206893 -0.08838,0.397658 -0.15625,0.59375 -0.0077,0.02195 -0.0233,0.04069 -0.03125,0.0625 -0.06274,0.173739 -0.138383,0.367449 -0.21875,0.53125 -0.04158,0.0828 -0.07904,0.169954 -0.125,0.25 -0.0546,0.09721 -0.126774,0.18835 -0.1875,0.28125 -0.09411,0.140965 -0.204921,0.275995 -0.3125,0.40625 -0.143174,0.17445 -0.303141,0.346998 -0.46875,0.5 -0.01117,0.0102 -0.01998,0.02115 -0.03125,0.03125 -0.138386,0.125556 -0.285091,0.234436 -0.4375,0.34375 -0.102571,0.07315 -0.204318,0.153364 -0.3125,0.21875 -0.0074,0.0045 -0.02384,-0.0044 -0.03125,0 -0.232039,0.138728 -0.462548,0.274778 -0.71875,0.375 0.301527,-0.0968 0.596455,-0.204138 0.875,-0.34375 0.55709,-0.279224 1.060053,-0.665694 1.5,-1.09375 0.219973,-0.214028 0.409366,-0.441865 0.59375,-0.6875 0.184384,-0.245635 0.355408,-0.507743 0.5,-0.78125 0.14012,-0.265048 0.276135,-0.524729 0.375,-0.8125 0.01041,-0.03078 0.02133,-0.06274 0.03125,-0.09375 0.09046,-0.278085 0.1388,-0.579404 0.1875,-0.875 C 89.95865,84.6507 90,84.334721 90,84 V 82 14 12 C 90,8.676 87.324,6 84,6 Z"
         inkscape:connector-curvature="0"
         id="rect3728-2"
         style="opacity:0.4;fill:url(#linearGradient3188-3);fill-opacity:1;fill-rule:nonzero;stroke:none" />
      <path
         style="display:inline;fill:url(#linearGradient3617-3-6-9);fill-opacity:1;fill-rule:nonzero;stroke:none;stroke-width:1.01071882"
         d="M 71.176902,65.681 C 67.82143,65.6715 65.086,68.38518 65.086,71.74896 c -0.0421,6.327911 0,18.250988 0,18.250988 l 24.914001,-24.31884 c 0,0 -10.603393,-0.0081 -18.823099,-1.08e-4 z"
         id="rect2419-1-1-6"
         inkscape:connector-curvature="0"
         sodipodi:nodetypes="ccccc" />
      <path
         style="display:inline;opacity:0.2;fill:url(#radialGradient4702-1);fill-opacity:1;fill-rule:nonzero;stroke:none"
         d="m 10.156336,6.34375 c -0.301527,0.0968 -0.596455,0.204138 -0.875,0.34375 -0.55709,0.279224 -1.060053,0.665694 -1.5,1.09375 -0.219973,0.214028 -0.409366,0.441865 -0.59375,0.6875 -0.184384,0.245635 -0.355408,0.507743 -0.5,0.78125 -0.14012,0.265048 -0.276135,0.524729 -0.375,0.8125 -0.01036,0.03015 -0.02137,0.06337 -0.03125,0.09375 -0.09046,0.278085 -0.1388,0.579404 -0.1875,0.875 C 6.041436,11.3493 6.000086,11.665279 6.000086,12 v 2 68 2 c 0,3.324 2.676,6 6,6 L 65.086,89.999948 66.086024,89.03125 V 72.677734 c 0,-3.24926 2.218148,-5.934819 5,-5.934819 H 88.914063 L 90.009649,65.67 89.99985,14 v -2 c 0,-0.334721 -0.0413,-0.6507 -0.0937,-0.96875 -0.0487,-0.295596 -0.097,-0.596915 -0.1875,-0.875 -0.01,-0.03101 -0.0208,-0.06297 -0.0312,-0.09375 C 89.58855,9.774729 89.45257,9.515048 89.31245,9.25 89.16785,8.976493 88.99683,8.714385 88.81245,8.46875 88.62806,8.223115 88.43867,7.995278 88.2187,7.78125 87.77875,7.353194 87.27579,6.966724 86.7187,6.6875 86.44015,6.547888 86.14522,6.44055 85.8437,6.34375 c 0.2562,0.100222 0.48671,0.236272 0.71875,0.375 0.007,0.0044 0.0238,-0.0045 0.0312,0 0.10818,0.06539 0.20993,0.1456 0.3125,0.21875 0.15241,0.109314 0.29911,0.218194 0.4375,0.34375 0.0113,0.0101 0.0201,0.02105 0.0312,0.03125 0.16561,0.153002 0.32557,0.32555 0.46875,0.5 0.10758,0.130255 0.21839,0.265285 0.3125,0.40625 0.0607,0.0929 0.1329,0.18404 0.1875,0.28125 0.046,0.08005 0.0834,0.1672 0.125,0.25 0.0804,0.163801 0.15601,0.357511 0.21875,0.53125 0.008,0.02181 0.0236,0.04055 0.0312,0.0625 0.0679,0.196092 0.1121,0.386857 0.15625,0.59375 0.0729,0.341512 0.125,0.698205 0.125,1.0625 v 2 l 0.01,52.677734 H 71.086024 c -3.241693,0 -6,2.711184 -6,6 V 88 h -51.085938 -2 c -2.781848,0 -5,-2.21815 -5,-5 V 81 13 11 c 0,-0.364295 0.05212,-0.720988 0.125,-1.0625 0.02336,-0.109469 0.06342,-0.205882 0.09375,-0.3125 0.0267,-0.09442 0.03067,-0.1893 0.0625,-0.28125 0.0077,-0.02195 0.02329,-0.04069 0.03125,-0.0625 0.07558,-0.209299 0.180242,-0.430294 0.28125,-0.625 0.05727,-0.107983 0.122737,-0.209468 0.1875,-0.3125 0.02405,-0.03913 0.03741,-0.08662 0.0625,-0.125 0.09411,-0.140965 0.204921,-0.275995 0.3125,-0.40625 0.152541,-0.185862 0.32207,-0.369817 0.5,-0.53125 0.09922,-0.08889 0.206327,-0.1692 0.3125,-0.25 0.112728,-0.08649 0.223355,-0.1733 0.34375,-0.25 0.03146,-0.01999 0.06182,-0.0432 0.09375,-0.0625 0.0074,-0.0045 0.02384,0.0044 0.03125,0 0.232039,-0.138728 0.462548,-0.274778 0.71875,-0.375 z"
         id="path3615-7-7"
         inkscape:connector-curvature="0"
         sodipodi:nodetypes="csssscccsccsccccccccscccsscscccccccccccccsccscccssccssccccccccccccc" />
    </g>
  </g>
  <g
     id="layer5"
     style="display:inline">
    <rect
       width="66"
       height="66"
       rx="12"
       ry="12"
       x="15"
       y="15"
       clip-path="url(#clipPath3613)"
       id="rect3171"
       style="opacity:0.07999998;fill:url(#linearGradient3613);fill-opacity:1;fill-rule:nonzero;stroke:#ffffff;stroke-width:0.5;stroke-linecap:round;stroke-linejoin:miter;stroke-miterlimit:4;stroke-dasharray:none;stroke-dashoffset:0;stroke-opacity:1;filter:url(#filter3794)" />
  </g>
  <path
     style="opacity:1;fill:#666666;fill-opacity:0.07843137;stroke:none;stroke-width:0.5235095;stroke-miterlimit:4;stroke-dasharray:none;stroke-opacity:1"
     d="m 47.892863,21.157399 c -10.740037,0 -20.497717,8.501411 -20.497717,18.988422 0,6.916044 3.437985,15.112464 9.097322,18.432441 v 14.173451 c 0,0.568626 0.468819,1.026401 1.051165,1.026401 h 2.854508 v 2.609661 c 0,0.568626 0.468819,1.026402 1.051165,1.026402 4.18646,0.06658 9.754291,-0.0326 13.237244,0.02205 0.582345,0 1.051164,-0.479828 1.051164,-1.048454 V 73.77811 c 0.01899,-2e-4 1.615353,-0.02004 2.555736,-0.02004 0.582345,0 1.051165,-0.457775 1.051165,-1.026402 -6.97e-4,-1.126126 0.0075,-2.639723 0,-3.690246 0,-0.0028 -0.002,-0.0052 -0.0021,-0.008 l -0.0657,-10.455461 c 5.659357,-3.319978 8.976162,-11.516072 8.976162,-18.43212 0,-10.487015 -9.620126,-18.988419 -20.360162,-18.988421 z m -0.05824,7.665824 C 53.758964,28.651144 60.742544,32.261253 61.020971,40.42 61.021203,46.538692 56.702177,50.792719 51.254,53.000217 v 4.000001 l -6.722,-4.35e-4 v -4 C 39.084622,50.791925 35.047295,46.53785 35.047505,40.419784 35.769876,32.178878 42.776708,28.970136 47.834618,28.823223 Z"
     id="path5047-4-7"
     inkscape:connector-curvature="0"
     sodipodi:nodetypes="csccccsccscsccccssccccccccsc" />
  <path
     style="opacity:1;fill:#242424;fill-opacity:0.21960784;stroke:none;stroke-width:0.50400001;stroke-miterlimit:4;stroke-dasharray:none;stroke-opacity:1"
     d="m 48,21.820312 c -0.642659,0 -1.276571,0.03175 -1.902344,0.0957 -0.01515,0.0015 -0.02979,0.0043 -0.04492,0.0059 C 36.633314,22.889846 28.5,30.756932 28.5,40.320312 c 0,6.738149 3.651286,14.249796 9.035156,17.484376 v 13.990234 c 0,0.554 0.446,1 1,1 h 2.925782 v 2.568341 c 0,0.554 0.445999,1 1,1 3.982686,0.06487 8.055718,-0.03176 11.36914,0.02148 0.554,0 1,-0.467485 1,-1.021485 v -2.568341 c 0.01807,-1.96e-4 1.788984,-0.01953 2.683594,-0.01953 0.554,0 1,-0.446 1,-1 -6.63e-4,-1.09716 0.0071,-2.279233 0,-3.302735 0,-0.0028 -0.0019,-0.005 -0.002,-0.0078 l -0.0625,-10.660156 c 5.38389,-3.234581 8.919922,-10.746224 8.919922,-17.484376 0,-9.531177 -7.966389,-17.371836 -17.330079,-18.382812 -0.04668,-0.005 -0.09193,-0.01678 -0.138671,-0.02148 -0.625146,-0.06383 -1.258395,-0.0957 -1.900391,-0.0957 z m -0.652344,5.97461 c 8.219168,-0.357587 13.462369,5.030919 14.837891,10.71875 0.07476,0.592705 0.126975,1.193645 0.126953,1.80664 2.16e-4,5.86598 -3.536581,10.892921 -8.587891,13.101563 -0.402364,0.169056 -0.806956,0.335547 -1.24414,0.478516 v 4.347656 h -8.960938 v -4.347656 c -0.414342,-0.143084 -0.793094,-0.292125 -1.167969,-0.44336 -5.091663,-2.19131 -8.662307,-7.241538 -8.662109,-13.136719 -1.6e-5,-0.432073 0.02698,-0.85892 0.06445,-1.28125 1.451121,-8.418035 9.760804,-11.053304 13.59375,-11.24414 z m -3.828125,36.27539 h 8.960938 v 2.246094 h -8.960938 z"
     id="path5047-4"
     inkscape:connector-curvature="0"
     sodipodi:nodetypes="cccscsscsccscsccccscccccccccccccccccccccc" />
  <path
     style="opacity:1;fill:#111111;fill-opacity:0.4627451;stroke:none;stroke-width:0.50400001;stroke-miterlimit:4;stroke-dasharray:none;stroke-opacity:1"
     d="m 48,21.819336 c -10.21727,0 -18.5,8.282732 -18.5,18.5 0,6.738149 3.61418,13.946084 8.99805,17.180664 v 14.110352 h 4.02344 V 75.181 h 10.95898 v -3.570648 h 4.02148 V 57.5 C 62.88584,54.26542 66.5,47.057485 66.5,40.319336 c 0,-10.217268 -8.28273,-18.5 -18.5,-18.5 z M 48,27 c 7.90469,-2.86e-4 14.31279,5.414642 14.3125,13.319336 2.2e-4,5.961306 -3.64904,11.062174 -8.83203,13.212891 v 4.714844 H 42.51953 V 53.532227 C 37.3373,51.381161 33.68925,46.280032 33.68945,40.319336 33.68916,32.415403 40.09607,27.00079 48,27 Z m -5.48047,36.071 h 10.96094 v 3.24443 H 42.51953 Z"
     id="path5047-7"
     inkscape:connector-curvature="0"
     sodipodi:nodetypes="ssccccccccssccccccccccccc" />
  <path
     style="opacity:1;fill:#ffffff;fill-opacity:1;stroke:none;stroke-width:0.50400001;stroke-miterlimit:4;stroke-dasharray:none;stroke-opacity:1"
     d="m 48,21.819336 c -10.21727,0 -18.5,8.282732 -18.5,18.5 0,6.738149 3.61418,12.616983 8.99805,15.851563 v 14.121094 h 4.02344 v 3.888671 h 10.95898 v -3.888671 h 4.02148 V 56.170899 C 62.88584,52.936319 66.5,47.057485 66.5,40.319336 c 0,-10.217268 -8.28273,-18.5 -18.5,-18.5 z m 0,4.1875 c 7.90469,-2.86e-4 14.31279,6.407806 14.3125,14.3125 2.2e-4,5.961306 -3.64904,11.062174 -8.83203,13.212891 v 4.714844 H 42.51953 V 53.532227 C 37.3373,51.381161 33.68925,46.280032 33.68945,40.319336 33.68916,32.415403 40.09607,26.007626 48,26.006836 Z M 42.51953,62.071289 H 53.48047 V 66.31543 H 42.51953 Z"
     id="path5047"
     inkscape:connector-curvature="0" />
</svg>
